/* XPM */
static char *result[] = {
/* columns rows colors chars-per-pixel */
"64 87 218 2 ",
"   c #010100",
".  c #0A0403",
"X  c #0B0906",
"o  c #0D0B08",
"O  c #120604",
"+  c #140906",
"@  c #120E0A",
"#  c #1A0D0A",
"$  c #1A0804",
"%  c #14110B",
"&  c #1A140E",
"*  c #1E1A12",
"=  c #191514",
"-  c #240805",
";  c #2B0B07",
":  c #390E08",
">  c #24130D",
",  c #2B140E",
"<  c #231D14",
"1  c #281811",
"2  c #341612",
"3  c #341B14",
"4  c #3D1A15",
"5  c #361A16",
"6  c #3C110B",
"7  c #262015",
"8  c #292116",
"9  c #2C251A",
"0  c #29231A",
"q  c #322A1C",
"w  c #37281D",
"e  c #342D22",
"r  c #3A2D2D",
"t  c #3D3323",
"y  c #3C3329",
"u  c #48110A",
"i  c #461C15",
"p  c #521912",
"a  c #501409",
"s  c #631706",
"d  c #751F0F",
"f  c #651F16",
"g  c #4C241D",
"h  c #432918",
"j  c #49271C",
"k  c #53271F",
"l  c #4E311D",
"z  c #77251A",
"x  c #5B2C23",
"c  c #552921",
"v  c #423624",
"b  c #443925",
"n  c #43392A",
"m  c #4B3E29",
"M  c #463A28",
"N  c #5A3628",
"B  c #453E3E",
"V  c #463937",
"C  c #49302E",
"Z  c #622D25",
"A  c #6D2B22",
"S  c #693629",
"D  c #69372B",
"F  c #723C2C",
"G  c #723E31",
"H  c #7A2E24",
"J  c #4D412B",
"K  c #51442D",
"L  c #4D443B",
"P  c #4D4332",
"I  c #544731",
"U  c #554832",
"Y  c #5B4C34",
"T  c #5A4D39",
"R  c #564B38",
"E  c #5E503A",
"W  c #7A422F",
"Q  c #7B502E",
"!  c #7D4B3A",
"~  c #764436",
"^  c #62543C",
"/  c #6C563E",
"(  c #744E32",
")  c #5A4646",
"_  c #585151",
"`  c #6C5C43",
"'  c #635440",
"]  c #715E46",
"[  c #665E5E",
"{  c #665253",
"}  c #75514E",
"|  c #74644A",
" . c #79664B",
".. c #79694E",
"X. c #726348",
"o. c #7D6C52",
"O. c #7D6A57",
"+. c #7C7474",
"@. c #766364",
"#. c #882B1E",
"$. c #922D21",
"%. c #94382A",
"&. c #A23224",
"*. c #AC3B2C",
"=. c #B53F30",
"-. c #AB3E30",
";. c #844E39",
":. c #8A5337",
">. c #96593A",
",. c #B84435",
"<. c #A64133",
"1. c #98643B",
"2. c #C64B3B",
"3. c #8E5944",
"4. c #8D5642",
"5. c #965E49",
"6. c #925B46",
"7. c #965F58",
"8. c #99614B",
"9. c #836F52",
"0. c #847255",
"q. c #8A7455",
"w. c #847359",
"e. c #897659",
"r. c #8C7A5C",
"t. c #917D5E",
"y. c #997355",
"u. c #8F6D4C",
"i. c #A46A47",
"p. c #AE784D",
"a. c #866C6E",
"s. c #8B7C6C",
"d. c #867766",
"f. c #927E60",
"g. c #837B7B",
"h. c #897D7A",
"j. c #847A76",
"k. c #9E7A70",
"l. c #AF756F",
"z. c #D95745",
"x. c #DB5847",
"c. c #D55443",
"v. c #CF5140",
"b. c #C07C4A",
"n. c #A7805F",
"m. c #948162",
"M. c #9B8464",
"N. c #9C8769",
"B. c #A48B6A",
"V. c #A98F6C",
"C. c #A78463",
"Z. c #AB916E",
"A. c #A38D74",
"S. c #A49074",
"D. c #AD9473",
"F. c #A89478",
"G. c #B29572",
"H. c #B69975",
"J. c #BA9B77",
"K. c #BC9E79",
"L. c #B39B7D",
"P. c #B78C68",
"I. c #BDA07D",
"U. c #CB864E",
"Y. c #CA8A57",
"T. c #D38C52",
"R. c #D98F53",
"E. c #D8935A",
"W. c #D0894F",
"Q. c #C6946B",
"!. c #D99761",
"~. c #DB9B66",
"^. c #DD9D68",
"/. c #CF976C",
"(. c #E09F6A",
"). c #C3A27C",
"_. c #D9A67D",
"`. c #E5A875",
"'. c #AF9882",
"]. c #BAA589",
"[. c #BAA386",
"{. c #AC9EA1",
"}. c #9C888A",
"|. c #CE8C86",
" X c #D18E87",
".X c #C5A682",
"XX c #C6A885",
"oX c #C9AA86",
"OX c #CBAD8B",
"+X c #C6AB8C",
"@X c #D7A983",
"#X c #D6A781",
"$X c #CDB08F",
"%X c #C2AC92",
"&X c #CFA891",
"*X c #CDB292",
"=X c #CCB59B",
"-X c #CFB89E",
";X c #D1B595",
":X c #D4BA9C",
">X c #D3B59A",
",X c #D0AD99",
"<X c #E5AE81",
"1X c #EBB384",
"2X c #EFB788",
"3X c #F2B989",
"4X c #D4BCA2",
"5X c #D8BFA2",
"6X c #D5B6A4",
"7X c #C7BABE",
"8X c #DBC1A5",
"9X c #DEC6AC",
"0X c #DFC8AE",
"qX c #E0C7AD",
"wX c #E0C8AE",
"eX c #E4CCB1",
"rX c #CABDC1",
"tX c None",
/* pixels */
"tXtXtXtXtXtXtXtXtXtXtXtXtXtXtXtXtXtXtXtXtXtXtXtXtXtXtXtXtXtXtXtXtXtXtXtXtXtXtXtXtXtXtXtXtXtXtXtXtXtXtXtXtXtXtXtXtXtXtXtXtXtXtXtX",
"tXtXtXtXtXtXtXtXtXtXtXtXtXtXtXtXtXtXtXtXtXtXtXtXtXtXtXtXtXtXtXtXtXtXtXtXtXtXtXtXtXtXtXtXtXtXtXtXtXtXtXtXtXtXtXtXtXtXtXtXtXtXtXtX",
"tXtXtXtXtXtXtXtXtXtXtXtXtXtXtXtXtXtXtXtXtXtXtXtXtXtXtXtXtXtXtXtXtXtXtXtXtXtXtXtXtXtXtXtXtXtXtXtXtXtXtXtXtXtXtXtXtXtXtXtXtXtXtXtX",
"tXtXtXtXtXtXtXtXtXtXtXtXtXtXtXtXtXtXtXtXtXtXtXtXtXtX                    tXtXtXtXtXtXtXtXtXtXtXtXtXtXtXtXtXtXtXtXtXtXtXtXtXtXtXtX",
"tXtXtXtXtXtXtXtXtXtXtXtXtXtXtXtXtXtXtXtXtXtXtXtXtX                      tXtXtXtXtXtXtXtXtXtXtXtXtXtXtXtXtXtXtXtXtXtXtXtXtXtXtXtX",
"tXtXtXtXtXtXtXtXtXtXtXtXtXtXtXtXtXtXtXtXtXtXtXtX  y I ^ ] O.d.O.] ` R P @   tXtXtXtXtXtXtXtXtXtXtXtXtXtXtXtXtXtXtXtXtXtXtXtXtXtX",
"tXtXtXtXtXtXtXtXtXtXtXtXtXtXtXtXtXtXtXtXtXtXtX    ' r.D..X;XwX8X.XK.t.o.%   tXtXtXtXtXtXtXtXtXtXtXtXtXtXtXtXtXtXtXtXtXtXtXtXtXtX",
"tXtXtXtXtXtXtXtXtXtXtXtXtXtXtXtXtXtXtXtXtXtXtXe y e.B.V.B.[.:XoXV.V.B.m.P y & tXtXtXtXtXtXtXtXtXtXtXtXtXtXtXtXtXtXtXtXtXtXtXtXtX",
"tXtXtXtXtXtXtXtXtXtXtXtXtXtXtXtXtXtXtXtXtX  X X.t.G.).B.e.B.).G.e.m.K.K.f.e.*   tXtXtXtXtXtXtXtXtXtXtXtXtXtXtXtXtXtXtXtXtXtXtXtX",
"tXtXtXtXtXtXtXtXtXtXtXtXtXtXtXtXtXtXtXtXtX  . o.M.[.oXG.m.G.oXI.M.B.oX+XB.m.7     tXtXtXtXtXtXtXtXtXtXtXtXtXtXtXtXtXtXtXtXtXtXtX",
"tXtXtXtXtXtXtXtXtXtXtXtXtXtXtXtXtXtXtX      X M.).:XwX$XI.*X9X:X)..X9X8X.XJ.9       tXtXtXtXtXtXtXtXtXtXtXtXtXtXtXtXtXtXtXtXtXtX",
"tXtXtXtXtXtXtXtXtXtXtXtXtXtXtXtXtXtXtX    X & B.oX:X8X*XXX;X0X4X.XOX5X5XoXI.y X       tXtXtXtXtXtXtXtXtXtXtXtXtXtXtXtXtXtXtXtXtX",
"tXtXtXtXtXtXtXtXtXtXtXtXtXtXtXtXtX      . t I ].wX$X).;X9X9X9X9X9X4X.XoX5X4XX.n &         tXtXtXtXtXtXtXtXtXtXtXtXtXtXtXtXtXtXtX",
"tXtXtXtXtXtXtXtXtXtXtXtXtXtXtXtXtX. .   X J E %XwXoXI.*X0X9X8X9XwX5XK.I.8X9X| J *     . . tXtXtXtXtXtXtXtXtXtXtXtXtXtXtXtXtXtXtX",
"tXtXtXtXtXtXtXtXtXtXtXtXtXtXtX  & b q   o | w.-X0XD.t.].0X:X).$X9X:Xm.N.4X9Xm.o.q   < b 9     tXtXtXtXtXtXtXtXtXtXtXtXtXtXtXtXtX",
"tXtXtXtXtXtXtXtXtXtXtXtXtXtXtX  & J t . % o.m.-X9XS.e.].0X;X).$X9X-Xf.f.4X9XA.e.e   7 J q     tXtXtXtXtXtXtXtXtXtXtXtXtXtXtXtXtX",
"tXtXtXtXtXtXtXtXtXtXtXtXtXtXtX  . % & e J V.H.5X9XS.e.D.+X*X8X;XoX[.r.m.:XqX[.G.^ e 7 % X     tXtXtXtXtXtXtXtXtXtXtXtXtXtXtXtXtX",
"tXtXtXtXtXtXtXtXtXtXtXtXtXtXtX      @ m Y H.).5X9XS.e.V.).$XwX:X).H.r.m.:XqXoX). .J 7         tXtXtXtXtXtXtXtXtXtXtXtXtXtXtXtXtX",
"tXtXtXtXtXtXtXtXtXtXtXtXtX  & q *   @ m E +X:X9X9XS.e.L.:X8X9X8X:X+Xf.m.4X9X4X:X..J <   % q 7     tXtXtXtXtXtXtXtXtXtXtXtXtXtXtX",
"tXtXtXtXtXtXtXtXtXtXtXtX    7 K q   @ M E :XwX9X9XS.w.].wX9X9X9X0X-Xr.m.4X9X9X0X0.J 7   * J t     tXtXtXtXtXtXtXtXtXtXtXtXtXtXtX",
"tXtXtXtXtXtXtXtXtXtXtXtX    % 8 7 < 9 m ^ -X0X0X9XS.e.].wX9XwX9XwX-Xr.m.4X9X9X9X0.m q < 7 8 *     tXtXtXtXtXtXtXtXtXtXtXtXtXtXtX",
"tXtXtXtXtXtXtXtXtXtXtXtX        & J J m ^ -X0X0X0XS.e.].wXwX9X0XwX-Xf.m.4X0X0X9Xw.m m K q         tXtXtXtXtXtXtXtXtXtXtXtXtXtXtX",
"tXtXtXtXtXtXtXtXtXtXtXtX% & o   < ^ E J E -X0X:X:XB.e.].wX9XwX9X9X-Xr.f.*X:X9X9X9.m Y ^ t   . % % tXtXtXtXtXtXtXtXtXtXtXtXtXtXtX",
"tXtXtXtXtXtXtXtXtXtX    q J 7   q e.o.J ^ -X9XoXI.M.e.].wXwX9X9X0X-Xf.t.J.).4X9Xw.m ` r.R   o J v .   tXtXtXtXtXtXtXtXtXtXtXtXtX",
"tXtXtXtXtXtXtXtXtXtX    9 K 7   q m.e.Y ` -X9X+XXXN.e.[.8X8XwX9X8X*Xf.r..XoX4X0Xd.U ..M.E   % m b     tXtXtXtXtXtXtXtXtXtXtXtXtX",
"tXtXtXtXtXtXtXtXtXtX    q K 8   n I.H.e.m.8X0X9X9XS.e.V.).*X0X:X).L.t.m.4X9X9X9XS.0.B.).|   % m b .   tXtXtXtXtXtXtXtXtXtXtXtXtX",
"tXtXtXtXtXtXtXtXtXtX    q J 7   n .XJ.r.N.4X0X9X0XS.o.V..X*X9X:X.XK.w.r.4X9X0X9XF.e.Z.oX..  % m t .   tXtXtXtXtXtXtXtXtXtXtXtXtX",
"tXtXtXtXtXtXtXtXtXtX    q J 8   L 8X*Xr.m.4X9X0X9XO.J A.9X;X).$X8X%XY ^ =X0X0X9XF.w.I.9Xs.  % J t .   tXtXtXtXtXtXtXtXtXtXtXtXtX",
"tXtXtXtXtXtXtXtXtXtX    9 K 7   L 0X=Xr.m.4X9X9X9X..J S.0X;X).OX0X%XU E =X9X9X9XF.e.[.wXs.  @ m b     tXtXtXtXtXtXtXtXtXtXtXtXtX",
"tXtXtXtXtXtXtXtXtXtX    , i ;   L 0X=Xr.m.].oX8X0XN...[.0X9X:X8XwX=X0.w.4X9X$XoXB.w.[.0Xs.  O i 4 .   tXtXtXtXtXtXtXtXtXtXtXtXtX",
"tXtXtXtXtXtXtXtXtXtX    ; u -   L 0X=Xr.t.K.).8X0XF.e.].0X9X0X9X0X-Xm.m.4X9XoXK.M.r.[.eXs.  . u 6     tXtXtXtXtXtXtXtXtXtXtXtXtX",
"tXtXtXtXtXtXtXtXtXtX    ; u -   L 0X%X` ` m.B..X+Xo.E N.$X:X9X8X$XI./ ` [.OXZ.N.| E A.eXs.  O u 6 .   tXtXtXtXtXtXtXtXtXtXtXtXtX",
"tXtXtXtXtXtXtXtXtXtX    ; u -   P 0X].K K 9.m.H.).] J q.).$XwX:X).V.K Y P.).m.w.^ m N.eXs.  O u 6     tXtXtXtXtXtXtXtXtXtXtXtXtX",
"tXtXtXtXtXtXtXtXtXtXtX  $ - O   P ;XI.K Y M.B.B.B./ J q.).oX;XoX).Z.U U M.Z.B.V./ m t.:Xw.    - -   tXtXtXtXtXtXtXtXtXtXtXtXtXtX",
"tXtXtXtXtXtXtXtXtXtXtXtX        y ).B.K Y H.K.m.q.E J q.).).).).).Z.K K 0.e.H.). .m q.). .        tXtXtXtXtXtXtXtXtXtXtXtXtXtXtX",
"tXtXtXtXtXtXtXtXtXtXtXtX        P $XG.K Y B.G.M.M.^ J 9.G.J.).I.D.M.K U m.B.Z.Z./ m r.;XO.        tXtXtXtXtXtXtXtXtXtXtXtXtXtXtX",
"tXtXtXtXtXtXtXtXtXtXtXtX        L 0X].I U 0.m.H.).] m ] e.B.).G.r.o.K Y G.).m.q.^ m N.eXs.        tXtXtXtXtXtXtXtXtXtXtXtXtXtXtX",
"tXtXtXtXtXtXtXtXtXtXtXtX        P 8X[.I U 0.m.B.H.` m  .m.V.).G.m.e.K U B.G.m.r.^ m f.qXd.        tXtXtXtXtXtXtXtXtXtXtXtXtXtXtX",
"tXtXtXtXtXtXtXtXtXtXtXtX        M ).B.K U 0.m.q.q.^ m q.).).).).).V.K K 9.e.r.e.^ m q.oX .        tXtXtXtXtXtXtXtXtXtXtXtXtXtXtX",
"tXtXtXtXtXtXtXtXtXtXtXtX        n I.M.K U 9.0.m.m.^ J q.J.I.).).I.B.J J q.m.m.q.^ m 9.K.|         tXtXtXtXtXtXtXtXtXtXtXtXtXtXtX",
"tXtXtXtXtXtXtXtXtXtXtXtX        e f.0.K U 0.r.G.K./ J X.m.B.).G.m. .o & B.I.m.e.^ J ` m.T         tXtXtXtXtXtXtXtXtXtXtXtXtXtXtX",
"tXtXtXtXtXtXtXtXtXtXtXtX        e r...K U 0.t.H.I.` m ` r.B.).Z.r.X.. @ B.I.m.e.^ J ` m.R         tXtXtXtXtXtXtXtXtXtXtXtXtXtXtX",
"tXtXtXtXtXtXtXtXtXtXtXtX        y H.N.K U 0.q.m.m.e o ` J.Z.m.B.H.m.X o o.M.m.e.^ m 9.J.]         tXtXtXtXtXtXtXtXtXtXtXtXtXtXtX",
"tXtXtXtXtXtXtXtXtXtXtXtX        n ).B.K U 0.r.e.e.9   ` ).Z.e.M.).M.X o | e.e.r.^ m q.). .        tXtXtXtXtXtXtXtXtXtXtXtXtXtXtX",
"tXtXtXtXtXtXtXtXtXtXtXtXtXtX    t M.e.K K ^ ^ 9.r.0   T M.B.G.Z.M.9.X X | r.` E U m X.B.^         tXtXtXtXtXtXtXtXtXtXtXtXtXtXtX",
"tXtXtXtXtXtXtXtXtXtXtXtXtXtXtX  q r...J J J K o.r.0   P m.B.).G.r.X.X o ..e.T J J J ` m.R         tXtXtXtXtXtXtXtXtXtXtXtXtXtXtX",
"tXtXtXtXtXtXtXtXtXtXtXtXtXtXtX  < ` ` ` ^ 9 8 ..r.0   P r.m.B.M.r.X.X o ..e.y 7 U ` ` ` b         tXtXtXtXtXtXtXtXtXtXtXtXtXtXtX",
"tXtXtXtXtXtXtXtXtXtXtXtXtXtXtX  & J Y m...o . X.r.9   J m.e.e.e.r.X.  o | e.*   Y m.` J q         tXtXtXtXtXtXtXtXtXtXtXtXtXtXtX",
"tXtXtXtXtXtXtXtXtXtXtXtXtXtX$ - , 9 l X.E X X ` r.0 . y X.9.B.m...E   o ..w.*   J | I 9 2 - $     tXtXtXtXtXtXtXtXtXtXtXtXtXtXtX",
"tXtXtXtXtXtXtXtXtXtXtXtX    ; s 6   o J t X X | r.0 . 9 J 9.).n.K t   o ..e.<   q K <   - s u     tXtXtXtXtXtXtXtXtXtXtXtXtXtXtX",
"tXtXtXtXtXtXtXtXtXtXtXtX    : d u   o m b . . E ..7   9 K X.H.m.K t   o ` ..=   q J 7   ; d p .   tXtXtXtXtXtXtXtXtXtXtXtXtXtXtX",
"tXtXtXtXtXtXtXtXtXtXtXtX    a &.f   % J b X . t J &   9 K / r...K t .   n J %   q K 7   6 &.z     tXtXtXtXtXtXtXtXtXtXtXtXtXtXtX",
"tXtXtXtXtXtXtXtXtXtXtXtX    p *.z $ > t e X   y U *   7 b E 0.` b q .   J I %   8 M 8 O p *.z     tXtXtXtXtXtXtXtXtXtXtXtXtXtXtX",
"tXtXtXtXtXtXtXtXtXtXtXtX    Z c.,.$.z X .   X ` 0.0     . 7 U t X . . o | o.*   .   p $.*.c.%..   tXtXtXtXtXtXtXtXtXtXtXtXtXtXtX",
"tXtXtXtXtXtXtXtXtXtXtXtX.   A z.2.&.z .     X X.e.0       7 K e       o ..0.*       p &.=.z.<.O . tXtXtXtXtXtXtXtXtXtXtXtXtXtXtX",
"tXtXtXtXtXtXtXtXtXtX    p #.-.z.2.&.z         J U *       e 0.T       X J U %       p &.,.z.2.#.z .   tXtXtXtXtXtXtXtXtXtXtXtXtX",
"tXtXtXtXtXtXtXtXtXtX    f &.,.x.2.&.z         t J &       y r.'       . t J o       p &.=.c.2.&.#..   tXtXtXtXtXtXtXtXtXtXtXtXtX",
"tXtXtXtXtXtXtXtXtXtX    H 2.v.x.=.d s       . t J %       9 ^ M       . b J %       6 d %.c.c.2.<.O   tXtXtXtXtXtXtXtXtXtXtXtXtX",
"tXtXtXtXtXtXtXtXtXtX    %.x.z.z.*.s a       . t J %       * J q         b m %       ; s $.z.z.z.,.+   tXtXtXtXtXtXtXtXtXtXtXtXtX",
"tXtXtXtXtXtXtXtXtXtX    }  X|. Xl.} N     2 2 < 7 r B *   < K e   o V V < < & # X   4 ~ 7.|.|. Xl.@   tXtXtXtXtXtXtXtXtXtXtXtXtX",
"tXtXtXtXtXtXtXtXtXtX    +.rX7XrX{.a.}   X x x +   { a.r   < P e   = a.@.#   , 2 O   V a.}.rX7X0X{.=   tXtXtXtXtXtXtXtXtXtXtXtXtX",
"tXtXtXtXtXtXtXtXtXtX    O.&X,X6X}.B V , 5 G G 5 > V ) j , 1 9 3 1 5 N ) 3 > 2 2 +   r } k.6X=X&XF.@   tXtXtXtXtXtXtXtXtXtXtXtXtX",
"tXtXtXtXtXtXtXtXtXtX    :.R.(.3Xy.  + x D 6.5.D N i 2 c Z 5   # x x 5 5 x x i 5 O   w F 7.2X`.E.p.#   tXtXtXtXtXtXtXtXtXtXtXtXtX",
"tXtXtXtXtXtXtXtXtXtX    ( 1.p.C.`   # D G 4.4.x c i i x G k @ 5 G D i i c c 2 > O   , c ! C.p.1.:.#   tXtXtXtXtXtXtXtXtXtXtXtXtX",
"tXtXtXtXtXtXtXtXtXtXtXtX. . . . .   > 6.6.D Z 4 5 c Z ;.5.! x G 6.4.Z x 4 5 .     . .   . . . . . tXtXtXtXtXtXtXtXtXtXtXtXtXtXtX",
"tXtXtXtXtXtXtXtXtXtXtXtX.   .       * ! ! x c i 4 x S ;.5.;.x S 4.4.c g 2 , > * X     .   .   .   tXtXtXtXtXtXtXtXtXtXtXtXtXtXtX",
"tXtXtXtXtXtXtXtXtXtXtXtXtXtXtXtXtXtXtX. + 2 4 c x ;.5.5.7.G 2 i S c o     . >.U.j   . tXtXtXtXtXtXtXtXtXtXtXtXtXtXtXtXtXtXtXtXtX",
"tXtXtXtXtXtXtXtXtXtXtXtXtXtXtXtXtXtXtX    , 2 c x } 3.3.6.D , i x g # o @ & i.T.l   tXtXtXtXtXtXtXtXtXtXtXtXtXtXtXtXtXtXtXtXtXtX",
"tXtXtXtXtXtXtXtXtXtXtXtXtXtXtXtXtXtXtX  . . . . + % % % % +   o o 3 P.Q.Q.Q.T.T.l   tXtXtXtXtXtXtXtXtXtXtXtXtXtXtXtXtXtXtXtXtXtX",
"tXtXtXtXtXtXtXtXtXtXtXtXtXtXtXtXtXtXtX.               .           < @X2X2X1XE.W.l   tXtXtXtXtXtXtXtXtXtXtXtXtXtXtXtXtXtXtXtXtXtX",
"tXtXtXtXtXtXtXtXtXtXtXtXtXtXtXtXtXtXtX  O j x y.C.n.n.i.1.N   3 >.p.<X1X1X<Xi.:.4   tXtXtXtXtXtXtXtXtXtXtXtXtXtXtXtXtXtXtXtXtXtX",
"tXtXtXtXtXtXtXtXtXtXtXtXtXtXtXtXtXtXtX  O S ! (.2X2X2X(.R.Q   h T.!.<X1X1X<X4.F 1   tXtXtXtXtXtXtXtXtXtXtXtXtXtXtXtXtXtXtXtXtXtX",
"tXtXtXtXtXtXtXtXtXtXtXtXtXtXtXtXtXg._ . $ S ~ Y.^.^.~.E.T.Q   h U.E.~.~.~.~.:.F ,   e }.tXtXtXtXtXtXtXtXtXtXtXtXtXtXtXtXtXtXtXtX",
"tXtXtXtXtXtXtXtXtXtXtXtXtXtXtXtXtXg.[ . + S W b.T.T.T.W.T.Q   h W.T.T.W.T.U.:.F ,   B g.g.tXtXtXtXtXtXtXtXtXtXtXtXtXtXtXtXtXtXtX",
"tXtXtXtXtXtXtXtXtXtXtXtXtXtXtXtXg.g.[ . + S W b.T.T.T.T.T.Q   h W.T.T.T.T.W.:.F 1   B g.g.tXtXtXtXtXtXtXtXtXtXtXtXtXtXtXtXtXtXtX",
"tXtXtXtXtXtXtXtXtXtXtXtXtXtXtXg.g.g.[ . O S W b.T.T.T.T.T.Q   h W.T.T.T.T.U.:.F 1   B g.g.g.g.tXtXtXtXtXtXtXtXtXtXtXtXtXtXtXtXtX",
"tXtXtXtXtXtXtXtXtXtXtXtXtXtXtXg.g.g.[ o $ ;.>.Y.!.!.!.E.R.Q   h Y.R.!.!.!.E.i.:.4   B g.g.g.g.tXtXtXtXtXtXtXtXtXtXtXtXtXtXtXtXtX",
"tXtXtXtXtXtXtXtXtXtXtXtXtXtXtXg.g.g.[ . , p.T.`.1X1X<X~.T.Q   h U.!.<X1X1X<XE.T.l   B g.g.g.g.tXtXtXtXtXtXtXtXtXtXtXtXtXtXtXtXtX",
"tXtXtXtXtXtXtXtXtXtXtXtXtXtXtXg.g.g.[ < e p.Y.oX@X@X.XQ.Y.! = m Y.Y.#X@X@X#XQ.U.I = ) g.g.g.g.tXtXtXtXtXtXtXtXtXtXtXtXtXtXtXtXtX",
"tXtXtXtXtXtXtXtXtXtXtXtXtXtXtXtXtXg.g.+.+.g.g.g.g.N.}.g.N.j.+.+.h.h.h.h.h.h.g.h.+.+.+.g.g.tXtXtXtXtXtXtXtXtXtXtXtXtXtXtXtXtXtXtX",
"tXtXtXtXtXtXtXtXtXtXtXtXtXtXtXtXtXg.g.g.g.g.g.g.g.g.g.g.g.g.g.g.g.g.g.g.g.g.g.g.g.g.g.g.g.tXtXtXtXtXtXtXtXtXtXtXtXtXtXtXtXtXtXtX",
"tXtXtXtXtXtXtXtXtXtXtXtXtXtXtXtXtXtXtXtXtXtXtXtXtXtXtXtXtXtXtXtXtXtXtXtXtXtXtXtXtXtXtXtXtXtXtXtXtXtXtXtXtXtXtXtXtXtXtXtXtXtXtXtX",
"tXtXtXtXtXtXtXtXtXtXtXtXtXtXtXtXtXtXtXtXtXtXtXtXtXtXtXtXtXtXtXtXtXtXtXtXtXtXtXtXtXtXtXtXtXtXtXtXtXtXtXtXtXtXtXtXtXtXtXtXtXtXtXtX",
"tXtXtXtXtXtXtXtXtXtXtXtXtXtXtXtXtXtXtXtXtXtXtXtXtXtXtXtXtXtXtXtXtXtXtXtXtXtXtXtXtXtXtXtXtXtXtXtXtXtXtXtXtXtXtXtXtXtXtXtXtXtXtXtX",
"tXtXtXtXtXtXtXtXtXtXtXtXtXtXtXtXtXtXtXtXtXtXtXtXtXtXtXtXtXtXtXtXtXtXtXtXtXtXtXtXtXtXtXtXtXtXtXtXtXtXtXtXtXtXtXtXtXtXtXtXtXtXtXtX",
"tXtXtXtXtXtXtXtXtXtXtXtXtXtXtXtXtXtXtXtXtXtXtXtXtXtXtXtXtXtXtXtXtXtXtXtXtXtXtXtXtXtXtXtXtXtXtXtXtXtXtXtXtXtXtXtXtXtXtXtXtXtXtXtX",
"tXtXtXtXtXtXtXtXtXtXtXtXtXtXtXtXtXtXtXtXtXtXtXtXtXtXtXtXtXtXtXtXtXtXtXtXtXtXtXtXtXtXtXtXtXtXtXtXtXtXtXtXtXtXtXtXtXtXtXtXtXtXtXtX"
};
