/* XPM */
static char *result[] = {
/* columns rows colors chars-per-pixel */
"64 64 210 2 ",
"   c #161B21",
".  c #191D21",
"X  c #241D23",
"o  c #2E1C25",
"O  c #331D26",
"+  c #391F27",
"@  c #3D1D28",
"#  c #1E2121",
"$  c #222222",
"%  c #2A2223",
"&  c #2D2C24",
"*  c #352225",
"=  c #3B2226",
"-  c #362A22",
";  c #3B2D23",
":  c #353125",
">  c #3D3224",
",  c #3E3925",
"<  c #431E29",
"1  c #422426",
"2  c #442C25",
"3  c #492B26",
"4  c #47212A",
"5  c #4B232A",
"6  c #482D29",
"7  c #5E2F27",
"8  c #53232B",
"9  c #5A232D",
"0  c #532B28",
"q  c #5C292A",
"w  c #512A25",
"e  c #4C3424",
"r  c #4A3925",
"t  c #4C3928",
"y  c #413726",
"u  c #5B3523",
"i  c #5D3B26",
"p  c #563528",
"a  c #67262E",
"s  c #6A272E",
"d  c #642A2E",
"f  c #6C2B2C",
"g  c #752E2D",
"h  c #782E2D",
"j  c #633226",
"k  c #6B362B",
"l  c #683A28",
"z  c #75322B",
"x  c #7C332B",
"c  c #7B3A2D",
"v  c #743827",
"b  c #6C3130",
"n  c #753730",
"m  c #763A31",
"M  c #7B3B30",
"N  c #4D4728",
"B  c #574627",
"V  c #5F4125",
"C  c #564929",
"Z  c #5E552A",
"A  c #654425",
"S  c #6C4627",
"D  c #6B4926",
"F  c #6B492D",
"G  c #76492A",
"H  c #64562A",
"J  c #6B5A2B",
"K  c #695529",
"L  c #765A2A",
"P  c #774530",
"I  c #6F652C",
"U  c #71632C",
"Y  c #81362B",
"T  c #843A2B",
"R  c #8A3C29",
"E  c #933F28",
"W  c #844523",
"Q  c #84402E",
"!  c #8D422A",
"~  c #844A28",
"^  c #9C4627",
"/  c #924229",
"(  c #9D4628",
")  c #96482A",
"_  c #9E4A28",
"`  c #895828",
"'  c #925426",
"]  c #9D532D",
"[  c #915B28",
"{  c #9B5E28",
"}  c #965629",
"|  c #8A4C31",
" . c #8B5432",
".. c #8E5A32",
"X. c #955A33",
"o. c #9C5C31",
"O. c #955432",
"+. c #A44A27",
"@. c #A84E27",
"#. c #A24D29",
"$. c #AD5525",
"%. c #AE5824",
"&. c #A65C2D",
"*. c #AC5D2D",
"=. c #A7542A",
"-. c #B55626",
";. c #B85725",
":. c #BC5A25",
">. c #B35C29",
",. c #B25A27",
"<. c #A15F31",
"1. c #846B2D",
"2. c #976129",
"3. c #84722F",
"4. c #9F752E",
"5. c #8A6531",
"6. c #866730",
"7. c #9B6134",
"8. c #956533",
"9. c #987C31",
"0. c #A16629",
"q. c #A96D2B",
"w. c #B3622D",
"e. c #BA6A2D",
"r. c #B96329",
"t. c #A7772D",
"y. c #BA722B",
"u. c #B2772C",
"i. c #A76333",
"p. c #AD7B35",
"a. c #BE7932",
"s. c #B37D36",
"d. c #C45E24",
"f. c #C66024",
"g. c #CA6525",
"h. c #CB6926",
"j. c #C3692A",
"k. c #CC6D28",
"l. c #C26828",
"z. c #C6752C",
"x. c #C9752D",
"c. c #C87B2C",
"v. c #D27329",
"b. c #D97328",
"n. c #D17E2C",
"m. c #DD7B2A",
"M. c #C67B31",
"N. c #CB7B31",
"B. c #998132",
"V. c #A28132",
"C. c #AA8332",
"Z. c #A38832",
"A. c #BC8135",
"S. c #B88537",
"D. c #AD9434",
"F. c #B79434",
"G. c #AC832F",
"H. c #C8832D",
"J. c #D4822C",
"K. c #DF832C",
"L. c #DE8B2E",
"P. c #D6892E",
"I. c #C38435",
"U. c #C38B37",
"Y. c #C88B37",
"T. c #D48532",
"R. c #CE9632",
"E. c #C49239",
"W. c #CA9F38",
"Q. c #C29F36",
"!. c #DC9833",
"~. c #D89632",
"^. c #E6842C",
"/. c #E8852C",
"(. c #E28B2E",
"). c #EA8D2D",
"_. c #E4902F",
"`. c #EC922F",
"'. c #F4942E",
"]. c #E39432",
"[. c #EC9B31",
"{. c #E79F33",
"}. c #F39D32",
"|. c #CCA038",
" X c #C5A137",
".X c #D2A737",
"XX c #DEA638",
"oX c #DCAD38",
"OX c #D3A03A",
"+X c #DDB43A",
"@X c #E3A236",
"#X c #ECA434",
"$X c #EDA935",
"%X c #E4AC39",
"&X c #E0A835",
"*X c #F3A433",
"=X c #F2AC36",
"-X c #E5B33A",
";X c #E3BC3A",
":X c #EBBC3D",
">X c #F5B236",
",X c #FCB436",
"<X c #F1B438",
"1X c #F1BB3A",
"2X c #FCB938",
"3X c #F5C13B",
"4X c #FBC43B",
"5X c #FECB3D",
"6X c #FFD23D",
"7X c None",
/* pixels */
"7X7X7X7X7X7X7X7X7X7X7X7X7X7X7X7X7X7X7X7X7X7X7X7X7X7X7X7X7X7X7X7X7X7X7X7X7X7X7X7X7X7X7X7X7X7X7X7X7X7X7X7X7X7X7X7X7X7X7X7X7X7X7X7X",
"7X7X7X7X7X7X7X7X7X7X7X7X7X7X7X7X7X7X7X7X7X7X7X7X7X7X7X7X7X7X7X7X7X7X7X7X7X7X7X7X7X7X7X7X7X7X7X7X7X7X7X7X7X7X7X7X7X7X7X7X7X7X7X7X",
"7X7X7X7X7X7X7X7X7X7X7X7X7X7X7X7X7X7X7X7X7X7X7X7X7X7X7X7X7X7X7X7X7X7X7X7X7X7X7X7X7X7X7X7X7X7X7X7X7X7X7X7X7X7X7X7X7X7X7X7X7X7X7X7X",
"7X7X7X7X7X7X7X7X7X7X7X7X7X7X7X7X7X7X7X7X7X7X7X7X7X7X7X7X7X7X7X7X7X7X7X7X7X7X7X7X7X7X7X7X7X7X7X7X7X7X7X7X7X7X7X7X7X7X7X7X7X7X7X7X",
"7X7X7X7X7X7X7X7X7X7X7X7X7X7X7X7X7X7X7X7X7X7X7X7X7X7X7X7X7X7X7X7X7X7X7X7X7X7X7X7X7X7X7X7X7X7X7X7X7X7X7X7X7X7X7X7X7X7X7X7X7X7X7X7X",
"7X7X7X7X7X7X7X7X7X7X7X7X7X7X7X7X7X7X7X7X7X7X7X7X7X7X7X7X7X7X7X7X7X7X7X7X7X7X7X7X7X7X7X7X7X7X7X7X7X7X7X7X7X7X7X7X7X7X7X7X7X7X7X7X",
"7X7X7X7X7X7X7X7X7X7X7X7X7X7X7X7X7X7X7X7X7X7X7X7X7X7X7X7X7X7X7X7X7X7X7X7X7X7X7X7X7X7X7X7X7X7X7X7X7X7X7X7X7X7X7X7X7X7X7X7X7X7X7X7X",
"7X7X7X7X7X7X7X7X7X7X7X7X7X7X7X7X7X7X7X7X7X7X7X7X7X7X7X7X7X7X7X7X7X7X7X7X7X7X7X7X7X7X7X7X7X7X7X7X7X7X7X7X7X7X7X7X7X7X7X7X7X7X7X7X",
"7X7X7X7X7X7X7X7X7X    . . $ # 7X7X7X7X7X7X7X7X7X7X7X7X7X7X7X7X7X7X7X7X7X7X7X7X7X7X7X7X7X7X7X7X7X7X# # # .     7X7X7X7X7X7X7X7X7X",
"7X7X7X7X7X7X7X7X$ $ $ $ $ $ $ $ 7X7X7X7X7X7X7X7X7X7X7X7X7X7X7X7X7X7X7X7X7X7X7X7X7X7X7X7X7X7X7X7X$ $ $ $ X $ $ $ 7X7X7X7X7X7X7X7X",
"7X7X7X7X7X7X7X7X, , > : - % % X 7X7X7X7X7X7X7X7X7X7X7X7X7X7X7X7X7X7X7X7X7X7X7X7X7X7X7X7X7X7X7X7X% % % - : > , , 7X7X7X7X7X7X7X7X",
"7X7X7X7X7X7X7XN H J H C t 2 * o X 7X7X7X7X7X7X7X7X7X7X7X7X7X7X7X7X7X7X7X7X7X7X7X7X7X7X7X7X7X7XX o O 2 t C H J H N 7X7X7X7X7X7X7X",
"$ $ .     . : Z 3.B.9.5.F p 4 O o .     .         .     .                   .               X o O 4 0 F 6.9.B.3.Z : .     X $ $ ",
"$ $ $ . . $ y U Z. X|.S...k 8 < O % $ $ # $ $ $ $ $ $ $ $ $ $ $ $ $ $ $ $ $ $ $ $ $ $ $ # # % O < 8 k X.S. X XZ.U > $ . . $ $ # ",
"$ $ $ % % : B 6.F.oX%XY.i.M d 8 3 2 > > > > 2 > ; > > ; > ; ; 2 2 > > > > ; > ; 2 > > > > > 2 3 8 d P i.Y.%XoXF.1.B : & % $ $ # ",
"# $ % ; r V ` t.R.%X#XY.i.R z k l S D D D D D D D D D D D D D S D D D D D D D D D D D D D D D l k z Q i.T.#X&XR.t.` A e : % $ # ",
". $ - r D [ q.H.].#X].N.>.) T Q } { 0.0.0.0.0.0.q.0.0.0.0.0.q.0.0.0.0.q.0.q.0.q.0.0.0.0.0.0.{ O.! T ) i.N.].[.].H.q.[ D r - # . ",
". $ ; V ` y.J._.`.`.(.x.*.) ) #.w.x.n.J.J.n.n.n.n.n.n.n.n.n.n.n.n.n.n.n.N.n.n.m.n.n.n.J.J.n.z.w.#.) ^ *.x.(.`.`.).P.y.' V > $ . ",
". $ ; D 2.c.).'.'.'.(.z.*.) ) =.j.m.^./.).^./././././././././.)./././././././././.)././.).^.m.j.=.) ) *.z.(.'.'.'.^.N.{ A > $ . ",
". # ; A { k.^.'.}.[.].M.<.! R #.r.m.^.^.^.^.^.^./.m./.m.m././.m.m.^./.m./.m./.m./.m./././.m.b.r._ R ! &.M.].*X}.'.^.x.{ A ; $   ",
". $ - V ' l.m.`.*X=X@XI.7.T Y E ,.g.b.b.b.b.b.b.b.b.b.b.b.b.b.b.b.b.b.b.b.b.b.b.b.b.b.b.b.b.g.,.) x Q 7.I.@X=X*X`.J.l.' l ; $ . ",
". $ - u W :.v.).$X<X%XY.7.M h T #.d.h.h.h.g.g.g.g.h.g.h.g.g.h.h.h.h.g.g.h.h.g.g.h.g.h.h.h.g.d.+.T n M o.U.%X<X*X).v.:.W u - $ . ",
". $ - u W %.k.(.*X<X%XU.7.M h T +.-.d.g.g.d.d.f.d.d.g.d.d.d.d.d.g.d.d.d.d.d.d.d.g.d.d.d.d.d.-.+.Y h x 7.U.%X<X#X(.h.%.W u - $ . ",
". $ - u W %.k.K.[.$X@XI.<.Q x R +.-.d.d.d.d.d.d.d.d.d.d.d.d.d.d.d.d.d.d.d.d.d.d.d.d.d.d.d.d.;.+.R Y Q <.I.@X=X[.K.h.%.W u - # . ",
". $ - u W %.h.K.).[._.H.&.) T / +.:.d.d.d.d.d.d.d.d.d.d.d.d.d.d.d.d.d.d.d.d.d.d.d.d.d.d.g.d.;.+.E T ) &.M._.[._.J.h.%.W u - $ . ",
". $ - u W %.h.b./.).L.z.*.) / ^ @.:.d.d.d.d.d.d.d.g.d.d.d.d.d.d.d.d.d.d.d.g.d.d.d.d.d.d.d.d.d.$.( ! ) *.M.(.`./.b.h.%.W u - $ . ",
". $ - u W %.h.b.).`.(.z.*.) E ^ @.:.d.g.d.d.d.d.d.g.d.d.g.d.d.d.d.d.d.d.d.d.d.d.g.d.g.d.g.d.d.@.^ E ) *.x.(.`./.m.h.%.W u - $ . ",
". $ - u W %.h.K.).{._.c.&.! R E @.d.d.d.g.d.d.d.d.d.d.g.d.d.g.g.d.g.g.d.g.g.d.f.d.d.d.d.d.d.d.+./ T / 0.M._.[.`.m.h.%.W u - $ . ",
". $ - u W %.h.K.{.*X@XI.0.T x R +.;.d.g.d.d.d.d.d.g.d.g.d.g.d.d.g.f.f.d.f.g.f.f.d.d.d.g.d.d.;.+.R x T i.H.&X=X[.K.h.%.W u - $ . ",
". $ - u W %.h.(.#X<X%XU.7.M h T +.;.d.d.g.d.d.d.d.d.d.d.d.d.d.d.d.f.d.d.d.d.d.d.d.d.d.d.d.d.-.^ T h M o.U.%X<X#X(.h.%.W u - $ . ",
". $ - u W %.h.L.*X>X%XU.7.M h T ( -.d.d.d.d.d.d.d.d.:.:.:.;.;.;.;.;.-.;.;.d.d.d.d.d.d.d.g.d.;.+.T z M 7.U.&X>X$XK.k.%.W u - $ . ",
". $ - u W %.g.K.{.$X@XI.<.Q x R +.-.d.d.g.d.d.d.:.;.@.@.+.+.^ ^ ^ ^ +.+.@.@.-.;.d.d.d.d.d.d.;.+.R x Q 7.H.&X$X[.K.h.%.W u - $ . ",
". $ - u W $.f.m.).[.].M.&.! T / +.;.d.d.d.d.:.;.$.@._ ) R Y Y h h Y T R E #.@.$.-.:.d.d.d.d.;.+./ R / &.M.].[.).m.g.$.W u - $ . ",
". $ - u W %.g.m.(.).^.M.*.) / ^ @.:.d.f.d.d.d.,.@.( / T Y g g b s g z z R E ( @.-.d.d.f.g.d.:.@.^ / ) *.M.^.).^.m.h.%.W u - $ . ",
". # ; i ` w.v.^.).`.(.M.*.) / _ -.j.k.v.v.k.j.>.#.) T T x m M m m m c c Y T / #.>.l.k.v.v.k.l.,._ ! ) *.x.L.).).^.v.w.` i - $ . ",
". $ > A 2.M.(.[.*X}.].N.&.! ! _ e.J.L.].).(.J.e.] R Y Q | X.X.7.7.X.X.| Q T R ] e.n.L.].).L.n.e.] ! ) &.M.].*X*X[.L.M.2.A ; $   ",
"  $ > K t.R.$X2X2X<X@XM.o.T Q o.a.!.$X>X>X$X!.a.o.T M | 7.S.F.E.E.U.S.7.| M T o.a.!.$X>X>X$X!.a.] T Q o.I.@X>X2X,X=XR.4.K , $   ",
"  $ > K B..X1X5X4X4X%XA.o.M M X.A.XX1X4X4X:XXXa.O.m m X.a.W.-X:X:X-XW.s...m M O.a.XX1X4X4X:XXXA.X.M M X.I.%X4X5X4X1X.XV.J , $   ",
". $ > H B. X+X3X4X3X-XU.o.M m  .p.W.+X;X:X+XW.p. .n m O.A.%X4X5X6X5X-XS.X.m n  .p.W.+X;X;X+X|.s. .m c o.I.%X1X4X3X+XQ.9.H , $   ",
". $ : N I B.F.|.-X=X#XY.i.T M ~ 8.V.D.D.D.D.9.5.P b n o.I.#X4X6X6X6X:XE.7.m b P 5.V.D.D.D.D.Z.5.| m Q i.H.%X<X-X.XF.B.U N - X   ",
". $ & , N K 1.G.R.{.[.J.w.! T G G U U I U U J F b d n O.z.].,X4X6X5X:XE.7.m d b F J U I I U J G G c ) w.n.[.{.R.G.U H N , & # . ",
"$ $ $ $ & , B L u.P.(.v.w.) c l p r , , , , y 6 0 9 n ) e.L.[.,X4X3X-XE.7.m d 5 6 , , , , , r u k c ) w.N.L.P.u.` Z , & & $ $ $ ",
"$ $ $ # $ % 2 D 2.y.z.e.=.! v u 2 - % X % % * O < 8 k Q <.z.T.{.%XoX|.s. .b 8 < + O % $ % % * 3 7 v ~ =.r.x.y.{ D 2 % X $ $ $ $ ",
"$ $ $ X X o 1 i G [ 2.' ~ l j 0 1 O O O o O O O @ 4 0 l Q { 2.t.C.Z.9.6.F p 4 + O O o o o o + 1 w 7 v ~ ' { [ G u ; O X X X $ # ",
"$ $ $ o O @ 4 0 i A A V u e 3 1 < < < < < < < @ * = 1 2 p A K G J J H C t > * + @ < < < < < < 1 1 3 e u V A A i 0 4 @ O o $ $ $ ",
"# $ % + 4 8 8 0 3 2 ; ; - - * = 4 8 9 9 9 9 9 < * * % - - ; > > y y > - : % * = 4 8 9 9 9 9 8 5 1 - - - ; > 2 3 w 8 8 4 * $ $ . ",
"# $ % = 5 q q 8 4 * % $ $ % * 1 8 q a s s a 9 8 1 * % $ $ % % % % % % % % % * 1 8 9 s s s a a 8 1 * X $ $ % * 4 8 d q 5 = % $ $ ",
"# $ % = 7 f f d 5 * * o o * 1 5 q f h h h g f q 5 = * * O O O o O O O O O O = 5 9 b g h h g s 9 5 * * O o O * 5 q f f 7 1 % $ # ",
". $ % 2 j z x z q < < < < < 8 9 f x x T T Y z f q 5 5 < < < < < < < < < < < 5 7 f z Y Y Y x z f q 5 < < < < < q f x z j 2 - $ . ",
"# $ * 3 j v T z f d 8 8 8 9 9 f z Y R R R R T x f q 9 9 8 9 9 9 9 8 9 9 8 8 d f x Y R R R R T x f q 9 9 8 9 a f x T v j 3 % $ . ",
"# $ & 3 j v Y Y h f s a a s f h Y R R / E R R Y x s a a a a a a a a s a s s f z T R R / / / R x g f a a a a f h x T v j 3 % $ . ",
"# $ & 1 7 z x Y x h g g g h z Y T / / / / / R R x z g g g g g g g g g g g h x x R R / / / / E R Y g h h g g h x x Y z 7 1 & $ $ ",
"# $ % 1 w f g x x x Y x Y x Y R R / / / / ! E R R Y Y Y Y Y x Y Y Y Y Y x Y Y R R / / / / / R R T T x Y Y Y Y x z g f w 1 & $ # ",
"# $ % = 5 q s g x R R R R R R R R R R / / E R R R R R R R T R R R R R Y R R R R R / R R / R R ! R R R R R R T x h s d 5 = % $ # ",
"# $ % + 4 9 s g x R R R R R R R R R R R R R R R R R T R R R R R R Y R R R R R R R R R R R R R R R R R R R R T x g s 9 4 * % $ # ",
"# $ X * 4 9 a s h z Y Y Y Y Y Y Y Y x Y Y x Y h Y Y Y Y x Y Y Y Y Y Y Y Y Y x Y Y Y Y x Y Y x x Y Y Y Y Y Y x g f a 9 < + % $ # ",
". $ % * < 9 a s g g g h g g g g g g g g g g g g g g g g g h h h g g g g g g g z h g g g g g g h g g g h g g g f s a 9 < = % $ # ",
"$ $ % * < 9 a a a a s s s a a s a a a a a a a a a a a a a d a a s s s s a a a s a a a a a a s a s a s s s s s s a 9 9 4 = % $ # ",
"# $ % * < 8 9 9 9 9 9 9 9 9 q 9 9 9 9 9 9 9 9 9 8 9 9 9 9 9 9 9 9 9 9 9 9 9 9 9 9 9 9 9 9 9 9 9 9 9 9 9 9 9 9 9 9 9 8 < * % $ # ",
"# $ % * = 4 4 4 < < < 5 4 4 4 < 4 4 4 4 4 4 4 4 4 4 4 4 4 4 < 5 < < 4 4 4 4 4 4 4 4 4 4 < < 4 4 4 4 4 4 < < < 4 < 8 < @ % % $ # ",
"$ $ $ % % * = * = O * * * O * * * * = * O = * * = * * = * * * + * O * * * O * * * * * + + * * * * * O * * * + * = = = % % $ $ $ ",
"$ $ $ $ % % % % % % % % % % % % % % % % % % % % % % % % % % % % % % % % % % % % % % % % % % % % % % % % % % % % % % % $ X $ $ $ ",
"$ $ $ $ $ $ $ $ $ $ $ $ $ $ $ % $ $ $ $ $ $ $ $ $ $ $ $ $ $ $ $ $ $ $ $ $ $ $ $ $ $ $ $ $ $ $ $ $ $ $ $ $ $ $ $ $ $ $ $ $ $ $ $ ",
"$ $ $ # # # # # # # # # # # # # # # # # # # # # # # # . # # # # # $ # # # # # $ # # # # # # # # # # # $ # # # # # # # # # # $ $ "
};
