/* XPM */
static char *result[] = {
/* columns rows colors chars-per-pixel */
"64 64 175 2 ",
"   c #222222",
".  c gray13",
"X  c #202121",
"o  c #202020",
"O  c #1F2020",
"+  c #1E1F1F",
"@  c #252424",
"#  c #2F2A2A",
"$  c #3A3231",
"%  c #423736",
"&  c #2E2A29",
"*  c #393130",
"=  c #473A39",
"-  c #493B3A",
";  c #483B3A",
":  c #383030",
">  c #2D2929",
",  c #1E1F20",
"<  c #1D1F1F",
"1  c #1D1E1F",
"2  c #272525",
"3  c #312B2B",
"4  c #3B3232",
"5  c #302B2A",
"6  c #3A3131",
"7  c #2E2A2A",
"8  c #2F2B2A",
"9  c #232323",
"0  c #252423",
"q  c #262424",
"w  c #262525",
"e  c #2B2828",
"r  c #342D2D",
"t  c #3D3333",
"y  c #433737",
"u  c #332D2C",
"i  c #3B3332",
"p  c #433837",
"a  c #3B3231",
"s  c #322C2C",
"d  c #322D2C",
"f  c #3C3332",
"g  c #282625",
"h  c #292726",
"j  c #2B2827",
"k  c #2C2928",
"l  c #2D2928",
"z  c #2D2A29",
"x  c #292727",
"c  c #3F3534",
"v  c #443837",
"b  c #3E3433",
"n  c #37302F",
"m  c #2E2929",
"M  c #312C2B",
"N  c #352F2E",
"B  c #3A3230",
"V  c #3D3432",
"C  c #3F3633",
"Z  c #403734",
"A  c #242323",
"S  c #292626",
"D  c #362F2E",
"F  c #393131",
"G  c #433736",
"H  c #453938",
"J  c #383130",
"K  c #3E3434",
"L  c #463938",
"P  c #38302F",
"I  c #3D3433",
"U  c #443937",
"Y  c #4C3E3B",
"T  c #52433F",
"R  c #564541",
"E  c #584642",
"W  c #262524",
"Q  c #413635",
"!  c #483B39",
"~  c #52423F",
"^  c #5C4945",
"/  c #65504A",
"(  c #6A534D",
")  c #6D554F",
"_  c #463939",
"`  c #4E3F3D",
"'  c #594744",
"]  c #66504B",
"[  c #705751",
"{  c #765B54",
"}  c #795D56",
"|  c #4A3C3B",
" . c #493C3B",
".. c #50403E",
"X. c #5B4845",
"o. c #68514C",
"O. c #735953",
"+. c #7C5F58",
"@. c #463A39",
"#. c #493C3A",
"$. c #4F403E",
"%. c #725852",
"&. c #785D56",
"*. c #7B5F57",
"=. c #5A4744",
"-. c #775C55",
";. c #7A5E56",
":. c #67504B",
">. c #715851",
",. c #7A5E57",
"<. c #5A4844",
"1. c #67514C",
"2. c #785C55",
"3. c #4D3E3D",
"4. c #574542",
"5. c #624D49",
"6. c #6A534E",
"7. c #4B3D3C",
"8. c #524240",
"9. c #604C48",
"0. c #644E4A",
"q. c #4D3F3D",
"w. c #554441",
"e. c #584643",
"r. c #4C3D3C",
"t. c #4C3E3C",
"y. c #564542",
"u. c #534340",
"i. c #614D48",
"p. c #6F5750",
"a. c #5B4844",
"s. c #735952",
"d. c #6B534E",
"f. c #725952",
"g. c #654F4B",
"h. c #534240",
"j. c #594743",
"k. c #453838",
"l. c #443838",
"z. c #252323",
"x. c #715852",
"c. c #1C1E1E",
"v. c #372F2F",
"b. c #403635",
"n. c #7B5E57",
"m. c #322C2B",
"M. c #413735",
"N. c #4D3E3C",
"B. c #544340",
"V. c #5D4A46",
"C. c #413734",
"Z. c #423835",
"A. c #453A37",
"S. c #4A3D3A",
"D. c #50413E",
"F. c #4F3F3E",
"G. c #654F4A",
"H. c #6C544F",
"J. c #785D55",
"K. c #584742",
"L. c #5D4A45",
"P. c #614C48",
"I. c #644F4A",
"U. c #65504B",
"Y. c #715751",
"T. c #745A53",
"R. c #6B534D",
"E. c #6B544E",
"W. c #6C544E",
"Q. c #6E5650",
"!. c #574643",
"~. c #634E49",
"^. c #795E56",
"/. c #69524D",
"(. c white",
/* pixels */
"  . . . X o O + + o @ # $ % % $ # @ o + + O O O O O O + + o @ & * % = - - ; ; - - = % : > @ @ & * % % $ # @ o + , O O , + < 1 1 ",
".             . X   2 3 4 % % 4 3 2   X .             . X   2 5 6 % = - ; ; ; ; - = % * 7 2 2 8 $ % % 4 3 2   X .               ",
". .   9 0 q w q q 2 e r t y y t r e 2 @ q 2 2 2 2 2 2 q @ 2 e u i p = - ; ; ; ; - = y a s e e d f y y t r e 2 @ q 2 g h j k l z ",
"o .   q x > # # 7 # d * c v v c * d # & 7 # # # # # # 7 & # d : c v = ; ; ; ; ; ; = v b n d d : c v v c * d # m & # M N B V C Z ",
"O X A S 8 D * F * * 4 c G H H G c 4 * J * * * * * * * * J * 4 K % L = ; ; ; ; ; ; = H % b 4 4 K % H H G c 4 * : P * I U Y T R E ",
"o   W > D b % p y % p v L = = L v p % % % % % % % % % % % % p v L = = ; ; ; ; ; ; = = H v p p v L = = L v p % Q Q % ! ~ ^ / ( ) ",
"@ 2 e s a y = ; ; = = = = = = = = = = = = = = = = = = = = = = = = = ; ; ; ; ; ; ; ; = = = = = = = = = = = = = _ L ; ` ' ] [ { } ",
"& 5 u J c H - | | - - ; ; ; ; ; ; - - - - - - - - - - - - - - ; ; ; ; = = = = = = ; ; ; ; - - ; ; ; ; ; ; - - ; =  ...X.o.O.} +.",
"* 6 f c y @.; #.- - ; ; ; ; ; ; ; ; - - - - - - - - - - - - ; ; ; ; ; = = = = = = ; ; ; ; ; ; ; ; ; ; ; ; ; ; = = - $.X.o.%.&.*.",
"% % p v L = ; ; ; ; ; ; ; ; ; ; ; ; ; ; ; ; ; ; ; ; ; ; ; ; ; ; ; ; ; = = ; ; = = ; ; ; ; ; ; ; ; ; ; ; ; ; = @._ ; ` =.] [ -.;.",
"= = = = = = ; ; ; ; ; ; ; ; ; ; ; ; ; ; ; ; ; ; ; ; ; ; ; ; ; ; ; ; ; ; ; ; ; ; ; ; ; ; ; ; ; ; ; ; ; ; ; ; = @._ ; ` ' ] [ { } ",
"| | | - ; ; ; = = = ; ; ; ; ; ; ; ; ; ; ; ; ; ; ; ; ; ; ; ; ; ; ; ; ; ; ; ; ; ; ; ; ; ; ; ; ; ; ; ; ; ; ; ; = @._ ; ` ' ] [ { } ",
"| | | - ; ; ; = = = ; ; ; ; ; ; ; ; ; ; ; ; ; ; ; ; ; ; ; ; ; ; ; ; ; ; ; ; ; ; ; ; ; ; ; ; ; ; ; ; ; ; ; ; = @._ ; ` ' ] [ { } ",
"= = = = = = ; ; ; ; ; ; ; ; ; ; ; ; ; ; ; ; ; ; ; ; ; ; ; ; ; ; ; ; ; ; ; ; ; ; ; ; ; ; ; ; ; ; ; ; ; ; ; ; = @._ ; ` ' ] [ { } ",
"% % y v H = = ; ; ; ; ; ; ; ; ; ; ; ; ; ; ; ; ; ; ; ; ; ; ; ; ; ; ; ; ; ; ; ; ; ; ; ; ; ; ; ; ; ; ; ; ; ; ; = @._ ; ` ' ] [ { } ",
": * a b % H = ; ; ; ; ; ; ; ; ; ; ; ; ; ; ; ; ; ; ; ; ; ; ; ; ; ; ; ; ; ; ; ; ; ; ; ; ; ; ; ; ; ; ; ; ; ; ; = @._ ; ` ' ] [ { } ",
"> 7 s n b v = ; ; ; ; ; ; ; ; ; ; ; ; ; ; ; ; ; ; ; ; ; ; ; ; ; ; ; ; ; ; ; ; ; ; ; ; ; ; ; ; ; ; ; ; ; ; ; = @._ ; ` ' ] [ { } ",
"@ 2 e d 4 p = - ; ; ; ; ; ; ; ; ; ; ; ; ; ; ; ; ; ; ; ; ; ; ; ; ; ; ; ; ; ; ; ; ; ; ; ; ; ; ; ; ; ; ; ; ; ; = @._ ; ` ' ] [ { } ",
"@ 2 e d 4 p = - ; ; ; ; ; ; ; ; ; ; ; ; ; ; ; ; ; ; ; ; ; ; ; ; ; ; ; ; ; ; ; ; ; ; ; ; ; ; ; ; ; ; ; ; ; ; = @._ ; ` =.] [ { } ",
"& 8 d : K v = ; ; ; ; ; ; ; ; ; ; ; ; ; ; ; ; ; ; ; ; ; ; ; ; ; ; ; ; ; ; ; ; ; ; ; ; ; ; ; ; ; ; ; ; ; ; ; = @._ ; ` =.:.>.-.,.",
"* $ f c % L = ; ; ; ; ; ; ; ; ; ; ; ; ; ; ; ; ; ; ; ; ; ; ; ; ; ; ; ; ; ; ; ; ; ; ; ; ; ; ; ; ; ; ; ; ; ; ; = @._ ; ` <.1.%.2.*.",
"% % y v H = = ; ; ; ; ; ; ; ; ; ; ; ; ; ; ; ; ; ; ; ; ; ; ; ; ; ; ; ; ; ; ; ; ; ; ; ; ; ; ; ; ; ; ; ; ; ; ; = @._ ; ` ' ] [ { } ",
"% % y v H = = ; ; ; ; ; ; ; ; ; ; ; ; ; ; ; ; ; ; ; ; ; ; ; ; ; ; ; ; ; ; ; ; ; ; ; ; ; ; ; ; ; ; ; ; ; ; ; = @.@.; 3.4.5.6.[ %.",
"$ 4 t c G L = ; ; ; ; ; ; ; ; ; ; ; ; ; ; ; ; ; ; ; ; ; ; ; ; ; ; ; ; ; ; ; ; ; ; ; ; ; ; ; ; ; ; ; ; ; ; ; = = @.; 7.8.=.9.0.] ",
"# 3 r * c v = ; ; ; ; ; ; ; ; ; ; ; ; ; ; ; ; ; ; ; ; ; ; ; ; ; ; ; ; ; ; ; ; ; ; ; ; ; ; ; ; ; ; ; ; ; ; ; = = = ; | q.~ w.4.e.",
"@ 2 e d 4 p = - ; ; ; ; ; ; ; ; ; ; ; ; ; ; ; ; ; ; ; ; ; ; ; ; ; ; ; ; ; ; ; ; ; ; ; ; ; ; ; ; ; ; ; ; ; ; = = = ; ; | r.3.` ` ",
"o   2 # * % = - ; ; ; ; ; ; ; ; ; ; ; ; ; ; ; ; ; ; ; ; ; ; ; ; ; ; ; ; ; ; ; ; ; ; ; ; ; ; ; ; ; ; ; ; ; ; = = = ; ; | t.q.` $.",
"+ X @ & J % = - - ; ; ; ; ; ; ; ; ; ; ; ; ; ; ; ; ; ; ; ; ; ; ; ; ; ; ; ; ; ; ; ; ; ; ; ; ; ; ; ; ; ; ; ; ; = = = ; | ` 8.y.e.' ",
"+ . q 7 * % = - - ; ; ; ; ; ; ; ; ; ; ; ; ; ; ; ; ; ; ; ; ; ; ; ; ; ; ; ; ; ; ; ; ; ; ; ; ; ; ; ; ; ; ; ; ; = = @.; r.u.X.5.] 1.",
"O   2 # * % = - - ; ; ; ; ; ; ; ; ; ; ; ; ; ; ; ; ; ; ; ; ; ; ; ; ; ; ; ; ; ; ; ; ; ; ; ; ; ; ; ; ; ; ; ; ; = @.@.; 3.4.i.( p.%.",
"O   2 # * % = - - ; ; ; ; ; ; ; ; ; ; ; ; ; ; ; ; ; ; ; ; ; ; ; ; ; ; ; ; ; ; ; ; ; ; ; ; ; ; ; ; ; ; ; ; ; = @.@.; 3.4.i.( p.%.",
"+ . q 7 * % = - - ; ; ; ; ; ; ; ; ; ; ; ; ; ; ; ; ; ; ; ; ; ; ; ; ; ; ; ; ; ; ; ; ; ; ; ; ; ; ; ; ; ; ; ; ; = = @.; r.u.X.5.] 1.",
"+ X @ & J % = - - ; ; ; ; ; ; ; ; ; ; ; ; ; ; ; ; ; ; ; ; ; ; ; ; ; ; ; ; ; ; ; ; ; ; ; ; ; ; ; ; ; ; ; ; ; = = = ; | ` 8.y.e.' ",
"o   2 # * % = - ; ; ; ; ; ; ; ; ; ; ; ; ; ; ; ; ; ; ; ; ; ; ; ; ; ; ; ; ; ; ; ; ; ; ; ; ; ; ; ; ; ; ; ; ; ; = = = ; ; | t.q.` $.",
"@ 2 e d 4 p = - ; ; ; ; ; ; ; ; ; ; ; ; ; ; ; ; ; ; ; ; ; ; ; ; ; ; ; ; ; ; ; ; ; ; ; ; ; ; ; ; ; ; ; ; ; ; = = = ; ; | r.3.` ` ",
"& 5 u : K v = ; ; ; ; ; ; ; ; ; ; ; ; ; ; ; ; ; ; ; ; ; ; ; ; ; ; ; ; ; ; ; ; ; ; ; ; ; ; ; ; ; ; ; ; ; ; ; = = = ; | q.~ w.4.e.",
"* 6 i c % L = ; ; ; ; ; ; ; ; ; ; ; ; ; ; ; ; ; ; ; ; ; ; ; ; ; ; ; ; ; ; ; ; ; ; ; ; ; ; ; ; ; ; ; ; ; ; ; = = @.; 7.8.=.9.0.] ",
"% % p v L = = ; ; ; ; ; ; ; ; ; ; ; ; ; ; ; ; ; ; ; ; ; ; ; ; ; ; ; ; ; ; ; ; ; ; ; ; ; ; ; ; ; ; ; ; ; ; ; = @.@.; 3.4.5.6.[ %.",
"= = = = = = ; ; ; ; ; ; ; ; ; ; ; ; ; ; ; ; ; ; ; ; ; ; ; ; ; ; ; ; ; ; ; ; ; ; ; ; ; ; ; ; ; ; ; ; ; ; ; ; = @._ ; ` ' ] [ { } ",
"| | | - ; ; ; = = = ; ; ; ; ; ; ; ; ; ; ; ; ; ; ; ; ; ; ; ; ; ; ; ; ; ; ; ; ; ; ; ; ; ; ; ; ; ; ; ; ; ; ; ; = @.L ; ` a.o.s.} +.",
"| | | - ; ; ; = = = ; ; ; ; ; ; ; ; ; ; ; ; ; ; ; ; ; ; ; ; ; ; ; ; ; ; ; ; ; ; ; ; ; ; ; ; ; ; ; ; ; ; ; ; = @.L ; ` a.o.s.} +.",
"= = = = = = ; ; ; ; ; ; ; ; ; ; ; ; ; ; ; ; ; ; ; ; ; ; ; ; ; ; ; ; ; ; ; ; ; ; ; ; ; ; ; ; ; ; ; ; ; ; ; ; = @._ ; ` ' ] [ { } ",
"% % p v L = = ; ; ; ; ; ; ; ; ; ; ; ; ; ; ; ; ; ; ; ; ; ; ; ; ; ; ; ; ; ; ; ; ; ; ; ; ; ; ; ; ; ; ; ; ; ; ; = @._ ; 3.4.5.d.[ f.",
"* 6 i c % L = ; ; ; ; ; ; ; ; ; ; ; ; ; ; ; ; ; ; ; ; ; ; ; ; ; ; ; ; ; ; ; ; ; ; ; ; ; ; ; ; ; ; ; ; ; ; ; = = @.; r.u.X.i.g.1.",
"& 5 u : K v = ; ; ; ; ; ; ; ; ; ; ; ; ; ; ; ; ; ; ; ; ; ; ; ; ; ; ; ; ; ; ; ; ; ; ; ; ; ; ; ; ; ; ; ; ; ; ; = = = ; | ` h.y.j.=.",
"@ 2 e d 4 p = - ; ; ; ; ; ; ; ; ; ; ; ; ; ; ; ; ; ; ; ; ; ; ; ; ; ; ; ; ; ; ; ; ; ; ; ; ; ; ; ; ; ; ; ; ; ; = = = ; ; | r.3.` ` ",
"o   2 # * % = - ; ; ; ; ; ; ; ; ; ; ; ; ; ; ; ; ; ; ; ; ; ; ; ; ; ; ; ; ; ; ; ; ; ; ; ; ; ; ; ; ; ; ; ; ; ; ; ; ; ; ; ; ; ; ; ; ",
"+ X @ & J % = - - ; ; ; ; ; ; ; ; ; ; ; ; ; ; ; ; ; ; ; ; ; ; ; ; ; ; ; ; ; ; ; ; ; ; ; ; ; ; ; ; ; ; ; ; ; ; ; ; = = @.L H k.l.",
"+ . q 7 * % = - - ; ; ; ; ; ; ; ; ; ; ; ; ; ; ; ; ; ; ; ; ; ; ; ; ; ; ; ; ; ; ; ; ; ; ; ; ; ; ; ; ; ; ; ; ; ; ; ; = = @.L H k.l.",
"O   2 # * % = - - ; ; ; ; ; ; ; ; ; ; ; ; ; ; ; ; ; ; ; ; ; ; ; ; ; ; ; ; ; ; ; ; ; ; ; ; ; ; ; ; ; ; ; ; ; ; ; ; ; ; ; ; ; ; ; ",
"O   2 # * % = - - ; ; ; ; ; ; ; ; ; ; ; ; ; ; ; ; ; ; ; ; ; ; ; ; ; ; ; ; ; ; ; ; ; ; ; ; ; ; ; ; ; ; ; ; ; = = = ; ; | r.3.` ` ",
"O   2 # * % = - - ; ; ; ; ; ; ; ; ; ; ; ; ; ; ; ; ; ; ; ; ; ; ; ; ; ; ; ; ; ; ; ; ; ; ; ; ; ; ; ; ; ; ; ; ; = = = ; | ` h.y.j.=.",
"O   2 # * % = - - ; ; ; ; ; ; ; ; ; ; ; ; ; ; ; ; ; ; ; ; ; ; ; ; ; ; ; ; ; ; ; ; ; ; ; ; ; ; ; ; ; ; ; ; ; = = @.; r.u.X.i.g.1.",
"O   2 # * % = - - ; ; ; ; ; ; ; ; ; ; ; ; ; ; ; ; ; ; ; ; ; ; ; ; ; ; ; ; ; ; ; ; ; ; ; ; ; ; ; ; ; ; ; ; ; = @._ ; 3.4.5.d.[ f.",
"O . w # * % = - ; = = = = = ; ; ; ; = = = = = = = = = = = = = = = = = = = = = = = = = = = = = = = = = = = = = _ L ; ` ' ] [ { } ",
"< o z.> n Q _ ; = @.@.= = = ; ; ; ; = = = @.@.= = = = = = @.@.@.@.@.@.@.@.@.@.@.@.@.@.= = = = = = @.@.@.@.@._ H k.= 3.' :.x.2.*.",
"c.O A k v.b.L = = _ _ @.= = ; ; ; ; = = @.@.@.@.= = = = @.@._ _ _ _ _ _ _ _ _ _ _ _ @.@.= = = = @.@._ _ _ _ L k.l.@.3.' ] >.-.n.",
"o   2 8 F G ; #.- ; ; ; ; ; ; = = ; ; ; ; ; ; ; ; ; ; ; ; ; ; ; ; ; ; ; ; ; ; ; ; ; ; ; ; ; ; ; ; ; ; ; ; ; ; = @.; ` =.] [ { } ",
"j z m.* M.#.` $.$.` 3.r.| ; ; = = ; ; | t.3.3.r.| ; ; | 7.3.` ` ` ` ` ` ` ` ` ` ` ` 3.7.| ; ; | 7.3.` ` ` ` ` 3.N.` B.V.o.>.{ } ",
"C.Z.A.S.D.y.' X.X.' 4.u.` | ; @.@.; | F.B.4.4.u.` | | q.8.4.' <.=.=.' ' ' ' =.=.<.' 4.8.q.| | q.8.4.' <.=.=.' j.e.=.V.G.H.s.{ J.",
"K.j.<.L.P.I.] 1.1.] 5.X.h.r.; L L ; r.u.^ 5.i.X.8.t.r.~ =.5.] 1.:.] ] ] ] ] ] :.1.] 5.=.~ r.r.~ =.5.] 1.:.] ] U.g.] o.H.Y.T.{ -.",
"R.E.W.) Q.p.[ x.%.[ d.i.y.3.; H H ; 3.!.~.6.( 5.y.q.3.w.9.6.[ %.>.[ [ [ [ [ [ >.%.[ 6.9.w.3.3.w.9.6.[ %.>.[ [ [ [ [ >.s.T.{ { -.",
"{ { { { { { { -.2.{ [ g.j.` ; k.k.; ` =.:.[ p.] e.` ` 4.0.[ { 2.-.{ { { { { { -.2.{ [ 0.4.` ` 4.0.[ { 2.-.{ { { { { { { { { -.-.",
"*.*.*.,.,.^.^.,.*.} f.1.=.` ; l.l.; ` X./.%.%.1.' $.` e.] %.} *.,.} } } } } } ,.*.} %.] e.` ` e.] %.} *.,.} } } } } } J.-.-.-.{ "
};
