/* XPM */
static char *_6857b4683054caa808df5caa3e137e390SiHFKdH6QsvQoJ[] = {
/* columns rows colors chars-per-pixel */
"64 87 235 2 ",
"   c None",
".  c #010000",
"X  c #0B0403",
"o  c #0B0906",
"O  c #0E0B08",
"+  c #140502",
"@  c #1B0603",
"#  c #1E0906",
"$  c #120D0A",
"%  c #180B08",
"&  c #15110B",
"*  c #1C130D",
"=  c #1D1513",
"-  c #1C1715",
";  c #2C0904",
":  c #260A07",
">  c #350B06",
",  c #2B150F",
"<  c #3A110B",
"1  c #211C14",
"2  c #281A15",
"3  c #351713",
"4  c #3D1B16",
"5  c #391913",
"6  c #2B241A",
"7  c #2A2116",
"8  c #31291C",
"9  c #39291A",
"0  c #2E2723",
"q  c #382926",
"w  c #3C3221",
"e  c #3C3329",
"r  c #3E2931",
"t  c #3A3333",
"y  c #2F1E25",
"u  c #400F09",
"i  c #46120D",
"p  c #49130D",
"a  c #491005",
"s  c #591609",
"d  c #4A1B13",
"f  c #451D17",
"g  c #591B11",
"h  c #611707",
"j  c #6C1C0C",
"k  c #671F13",
"l  c #741F0F",
"z  c #44231B",
"x  c #4A241A",
"c  c #4B2D1C",
"v  c #452519",
"b  c #56271C",
"n  c #6B2315",
"m  c #6B2319",
"M  c #682818",
"N  c #732511",
"B  c #782615",
"V  c #63311C",
"C  c #7A311C",
"Z  c #462825",
"A  c #5C2C24",
"S  c #542922",
"D  c #423425",
"F  c #4C3423",
"G  c #463A26",
"H  c #4B3E29",
"J  c #493628",
"K  c #593A27",
"L  c #473238",
"P  c #553D3C",
"I  c #682C24",
"U  c #623424",
"Y  c #68362A",
"T  c #743D2D",
"R  c #793427",
"E  c #6E3529",
"W  c #4D412B",
"Q  c #52442E",
"!  c #5B4C34",
"~  c #574631",
"^  c #5F513A",
"/  c #4D4138",
"(  c #73412C",
")  c #674638",
"_  c #674635",
"`  c #744C39",
"'  c #794837",
"]  c #62543B",
"[  c #6B553D",
"{  c #68593F",
"}  c #7B533C",
"|  c #594646",
" . c #5A5353",
".. c #504849",
"X. c #61434D",
"o. c #6C5C43",
"O. c #635542",
"+. c #755A43",
"@. c #695956",
"#. c #785858",
"$. c #74644A",
"%. c #7B6A4E",
"&. c #766248",
"*. c #7D6C51",
"=. c #73645C",
"-. c #7D7474",
";. c #796767",
":. c #725F60",
">. c #87281A",
",. c #932C1E",
"<. c #862D21",
"1. c #962E21",
"2. c #9C2F21",
"3. c #8B3325",
"4. c #9C3123",
"5. c #953427",
"6. c #8D3A31",
"7. c #A23224",
"8. c #A83A2A",
"9. c #A83C3B",
"0. c #A73D36",
"q. c #B23E2F",
"w. c #854A38",
"e. c #845438",
"r. c #995334",
"t. c #A64337",
"y. c #B64837",
"u. c #98643B",
"i. c #83613E",
"p. c #CA4E3D",
"a. c #C54B3B",
"s. c #CC503F",
"d. c #885744",
"f. c #975947",
"g. c #944F42",
"h. c #85684C",
"j. c #886757",
"k. c #976854",
"l. c #847255",
"z. c #8A755A",
"x. c #8C7A5B",
"c. c #887356",
"v. c #937C5D",
"b. c #977156",
"n. c #96674C",
"m. c #A66845",
"M. c #AA7A5A",
"N. c #B1734B",
"B. c #876766",
"V. c #837B7B",
"C. c #8B7677",
"Z. c #977569",
"A. c #B27D61",
"S. c #C95344",
"D. c #D85948",
"F. c #B0835C",
"G. c #968262",
"H. c #9B8464",
"J. c #9B866A",
"K. c #988775",
"L. c #A48C6B",
"P. c #A78A6B",
"I. c #B78666",
"U. c #AC916E",
"Y. c #A68C75",
"T. c #AB9477",
"R. c #B19572",
"E. c #B59975",
"W. c #BC9E79",
"Q. c #B89A79",
"!. c #B48C75",
"~. c #BEA07C",
"^. c #CC854D",
"/. c #C48857",
"(. c #D38B51",
"). c #D79055",
"_. c #D99358",
"`. c #D18A4F",
"'. c #C58B66",
"]. c #D28A6D",
"[. c #C9936D",
"{. c #DC9D6B",
"}. c #D99A67",
"|. c #CD9971",
" X c #D59F75",
".X c #C2A27C",
"XX c #CEA076",
"oX c #D9A67B",
"OX c #DFA16D",
"+X c #E1A573",
"@X c #E4A975",
"#X c #E5AB7B",
"$X c #E9AD7B",
"%X c #E1A36F",
"&X c #B39E84",
"*X c #B39784",
"=X c #B69796",
"-X c #AB8E8E",
";X c #B9A38A",
":X c #B9A393",
">X c #B6AAA9",
",X c #9F8C8C",
"<X c #C7A987",
"1X c #D7AA86",
"2X c #DAB38C",
"3X c #CCB499",
"4X c #D2B696",
"5X c #D7BA99",
"6X c #CDB08F",
"7X c #EAB385",
"8X c #ECB789",
"9X c #EDBA8B",
"0X c #E7B083",
"qX c #E8BC95",
"wX c #EDBA8D",
"eX c #C9A6A5",
"rX c #D6BDA2",
"tX c #CBBBB9",
"yX c #ECC49B",
"uX c #F4C599",
"iX c #F3C596",
"pX c #DCC4AA",
"aX c #DAC2A7",
"sX c #CFC5BB",
"dX c #E7C8A6",
"fX c #F4CCA4",
"gX c #F8CDA2",
"hX c #F5D1A9",
"jX c #FBD4AA",
"kX c #FFD9AE",
"lX c #F9D2A7",
"zX c #FFDBB0",
"xX c #F9D7B1",
"cX c #E5CEB6",
"vX c #CFC9C5",
/* pixels */
"                                                                                                                                ",
"                                                                                                                                ",
"                                                                                                                                ",
"                                                                                                                                ",
"                                                                                                                                ",
"                                                                                                                                ",
"                                                                                                                                ",
"                                                                                                                                ",
"                                                                                                                                ",
"                                                          . . . . .                                                             ",
"                                                        o . o o o o                                                             ",
"                                                  . . . 7 G ] %.W w $ . . .                                                     ",
"                                                o o o & D ! %.l.{ ! 7 o o o                                                     ",
"                                              . 1 G ] *.J.Q.&.Q G.R.c.%.W w o .                                                 ",
"                                            . . - w ] *.H.U.$.! G.U.c.%.W w . .                                                 ",
"                                          . . . . . 8 Q Q Q $.z.] Q Q W & . . . . .                                             ",
"                                          $ & - 7 6 W { ^ ! *.G.o.! ] ^ w 6 1 1 & O                                             ",
"                                      . * G ] z.H.Q.~.~.H.l.U.~.G.x.R.~.Q.E.x.%.W w . .                                         ",
"                                      & 8 ^ { +.n.F.A.M.b.k.I.I.b.k.M.F.M.M.h.[ ] Q = &                                         ",
"                                  . & H ] x.[ i b B N N 5.9.9.9.0.t.<.N N n p b c.*.W w . .                                     ",
"                                  . & W ! e.( g k N B <.5.9.0.9.0.0.3.<.N N s b } } Q w . .                                     ",
"                                  . & W K N N N N N 3.9.9.9.9.9.9.9.9.9.C N n N N M Q w . .                                     ",
"                                o 1 7 c b N M V U V 6.f.f.f.w.w.g.f.f.g.C V V V N n c v 1 *                                     ",
"                              . O W F i s N V W W H o.v.z.z.^ W %.x.x.c.~ W W W N k a v Q 8 . .                                 ",
"                              . o v v i d V K W ! { %.x.H.L.*.o.v.P.v.c.~ W o.{ V V i f c 3 . .                                 ",
"                              . + i i i v H H H [ v.x.x.U..XJ.x.E.W.G.l.! W l.l.Q F i i i ; . .                                 ",
"                            o 7 6 i p c Q &.^ W &.U.U.U.;X5XQ.U.<X5X:X&X%.$.L.L.v.h.F c i 5 7 1 .                               ",
"                          . O H F i d H ^ x.$.G l..X.X~.5XpX6X.XrXpXcXaXH.v.W..X.XU.Q F p x Q 8 . .                             ",
"                          . X f c c F H { R.G.$.G..XU.H.~.6X3X5X&XT.aXpXQ.L.L.L.4X6XG.h.F c x 2 . .                             ",
"                          . X u d H W H &..XU.z.P..XL.z.U..X3XpXL.l.3XpX<X~.G.H.aXaX.XL.Q F p ; . .                             ",
"                          . X u b &.o.H %.rXY.^ %.H.h.e.c.H.W.6X~.T.L.T.3X4XE.U.Y.T.5X;X*.) p ; . .                             ",
"                          . X < b x.*.Q l.dXY.W [ x.i.( h.x.R.|.~.~.G.G.3XaX~.~.x.J.aX3XG.+.p : . .                             ",
"                          . X D _ R.L.%.G.6XG.W i././.|.(.F.P.G.G.G.} } H.J.H.J.E.R.L.L.R.G.H 7 . .                             ",
"                          . o G { ~.R.c.H..Xv.G e.^.OX8X{.(.M.v.G.x.e.' h.l.l.x.~.~.G.G.~.G.W 6 . .                             ",
"                          . O G o.rX;X! c.lXZ.$ * 7 n.8X$X#XoXoXXXoXXX[.w = - e 5X5XG.J.aXT.Q 8 . .                             ",
"                          . o G o.aX;XW c.kXJ.. o & h.9X8X9X8X8X9X9X8XoXe & . 7 yXyXx.J.pX;XQ 8 . .                             ",
"                          . o G o.pX;XW c.zXZ..  .vXcXhXlXlXlXlXlXlXlXhXsX>X- 6 yX5X] %.pX;XW 8 . .                             ",
"                          . o w O.aX;XW c.zXL.X :.vXcXkXkXkXkXkXkXkXkXxXvX>X2 0 uX5X~ $.aXT.G 7 .                               ",
"                              X 8 ~.J.W c.kXT.y r L Y.zXkXkXkXkXkXkXkXfX@.r q P fX5X~ { ;Xc.o o                                 ",
"                              . 6 ~.L.W l.lXT.r r r Y.zXkXkXkXkXkXkXxXfX| r r | yX2X~ { <Xc.. .                                 ",
"                              . 0 aX;XW h.8X!.X.X.| *XzXkXkXkXkXkXkXkXfXB.X.X.#.0X|.~ $.pXK.. .                                 ",
"                              . 0 3X&Xw [ [.I.j.B.B.<XkXkXkXkXkXkXkXkXhXZ.B.B.B.].F.e O.aXZ.. .                                 ",
"                              . 6 ~.x.. 2 ( k.7XiXjXkXkXkXkXkXkXkXkXkXkXjXlX8XoXw.U . w .Xl.. .                                 ",
"                              . 7 G.&.. % S e.].oXiXiXgXgXgXgXgXgXgXfXgXiX9X|.F.U 9 . 6 T.*.. .                                 ",
"                              . $ H w . . . 2 T m.).%X7X7X7X7X7X7X7X7X7X_.(.w.U X . . 1 x.O.. .                                 ",
"                              . $ 8 6 < i x b b ( e.N.I.{.+X+X+X+X+X'.I.u.e.U b d 4 . 6 H.o.. .                                 ",
"                                  . : 4.q.D.5.> + . 5 T m.(.(.(.`.^.w.Y + . : i S.t.X 0 W.c.. .                                 ",
"                                  . : >.1.8.5.C g ; _ I.|.#XOX{.+X#XI.M.4 > m <.8.3.X 6 L.$.. .                                 ",
"                                  . @ h h h ,.D.8.h A.kXkXkXwX7XgXkXkXfXC j p.p.j a . 1 z.O.. .                                 ",
"                                X + < 5.>.a B a.4.B '.kXkXkXgXuXjXkXkXfXr.>.y.t.s s I b H 8 . .                                 ",
"                              . X ; k D.0.; k 7.7.7.].kXkXkXkXkXkXkXkXlXy.,.7.,.> g D.0.. . . .                                 ",
"                              . X a j y.C + < l >.2.].kXkXzXuXuXlXkXkXuXy.2.B j @ < y.5.> : . .                                 ",
"                              . + s l 4.k . ; s >.2.A.kXkXkXqX7XuXzXkXgXy.1.j s . # 1.,.j u . .                                 ",
"                              . @ >.,.7.m . X : p l N.@X+X+XF.m.}.@X@X{.3.j ; # . # 1.1.>.k . .                                 ",
"                              . : 1.7.7.m . . . ; h r.(.(.(.r.T N.(.(.^.N s X . . # 1.7.7.m . X                                 ",
"                          . + n >.a.y.7.m . X : u h u.$X7XiX2X1X9XiX#X{.C s ; @ . : 1.8.p.q.m d .                               ",
"                          . % 1.q.D.a.7.l . + > a h m.0XyXjXjXjXjXhX8XoXC s > ; . # 1.8.D.p.7.k . .                             ",
"                          . : y.S.D.p.7.k . + ; g 1.R Y _ ) ) ) ) ) _ Y <.>.u ; . # 1.q.D.D.p.R . .                             ",
"                          . * S.D.D.S.7.I . @ > k 7.I 3 3 3 5 5 3 5 3 4 1.2.i > . : 5.9.D.D.D.6.. .                             ",
"                          . y =XeXeX=XB.P . 0 #.w.7.I Z K _ ) ) _ _ Z Z 1.4.#.| X * #.Z.eXeXeX;.. .                             ",
"                          . 1 >XtXtX>XB.| . q B.g.9.Y r P ' ` ` ` +.L Z 6.t.B.#.$ - @.C.tXtXtX-.. .                             ",
"                          . 2 1XqXxX2X' Z . - L B.eX#.3 S Y S 4 S I f z -X=Xk.d.A z $ P hXfXwXb.. .                             ",
"                          . 2 [.XXqXQ.Y z . $ y :.>X#.3 A Y f 4 A Y z Z ,X=Xk.d.T S . q 4X2XXXh..                               ",
"                              * * = * + + . X X = Z S A ' f.T S d.g.Y S Z Z Y E f.` . . = = : *                                 ",
"                              . . . X . . X % 6 , , 4 S ' d.E A d.f.T Y z 4 S A ' _ X . . . X .                                 ",
"                                          . ~ oX+.. . . 4 Y x 5 w.n.f.f.Y A 4 3 O o                                             ",
"                                          . ~ $Xb.e e e Z x 3 , K ` ` ' S Z , : . .                                             ",
"                                          . V ).#XhXhXhXO.. . . . . . . . . . . X .                                             ",
"                                          . c N.{.lXlXuXh.9 % . 2 v D D D w , # X .                                             ",
"                                          . , T M.7X7X7X}.`.c . u.(.#X0X0XoXe.U + .                                             ",
"                                        t . 3 T N.7X7X7X}.(.c X u.).#X7X7XoXw.U X O                                             ",
"                                      V. .X 3 T M.8X7X7X}.(.c . u.).#X7X7X+Xw.U X 1 -.V.                                        ",
"                                    V.V. .. z u./.0X7X7X}.(.c X u.).@X7X7X#Xm.e.+ - -.V.                                        ",
"                                  V.V.V. .. K (.{.0X0X7X}.(.c . u.).#X7X7X#X_.N.% - -.V.V.V.                                    ",
"                                  V.V.V. .. K OX0XuXuXuXOX(.c X u._.9XuXuXwX@X/.% - C.V.V.V.                                    ",
"                                  V.V.V. .. ! 8XuXkXkXzX@X(.c . u._.uXzXzXjXwX|.$ - V.V.V.V.                                    ",
"                                    V.V.;...=.*X&X:X:X:X!.P.@...z.P.=X:X:X&X*XK... .V.V.                                        ",
"                                      V.V.V.-.V.V.-.-.V.-.V.V.V.V.V.-.V.V.V.V.V.V.V.V.V.                                        ",
"                                                                                                                                ",
"                                                                                                                                ",
"                                                                                                                                ",
"                                                                                                                                ",
"                                                                                                                                ",
"                                                                                                                                ",
"                                                                                                                                ",
"                                                                                                                                ",
"                                                                                                                                "
};
