/* XPM */
static char *result[] = {
/* columns rows colors chars-per-pixel */
"64 64 151 2 ",
"   c #1D1F1F",
".  c #1E1F20",
"X  c #241F21",
"o  c #2A1F22",
"O  c #351F25",
"+  c #1E2020",
"@  c #232222",
"#  c #2B2423",
"$  c #2B2827",
"%  c #2D2929",
"&  c #322623",
"*  c #3D2326",
"=  c #352922",
"-  c #392A22",
";  c #332D2C",
":  c #3F2A2C",
">  c #37302F",
",  c #38302F",
"<  c #3B3332",
"1  c #441F27",
"2  c #461F28",
"3  c #481F28",
"4  c #402626",
"5  c #442B23",
"6  c #4B2D24",
"7  c #43252A",
"8  c #4A222A",
"9  c #4F292F",
"0  c #5F2E27",
"q  c #53232B",
"w  c #5A232D",
"e  c #562929",
"r  c #5E2E28",
"t  c #4F3322",
"y  c #433229",
"u  c #4D3529",
"i  c #543323",
"p  c #5B3522",
"a  c #5D3822",
"s  c #4E2F33",
"d  c #5E2530",
"f  c #572931",
"g  c #5E2B33",
"h  c #423736",
"j  c #4F3737",
"k  c #433837",
"l  c #483836",
"z  c #463A39",
"x  c #4A3C3B",
"c  c #543E35",
"v  c #583F36",
"b  c #5B3739",
"n  c #533D39",
"m  c #5D393B",
"M  c #672B2B",
"N  c #663426",
"B  c #6A3526",
"V  c #623A24",
"C  c #6E3926",
"Z  c #713727",
"A  c #753B26",
"S  c #7F3B27",
"D  c #713229",
"F  c #7E3A28",
"G  c #642A34",
"H  c #673339",
"J  c #66383C",
"K  c #6D393E",
"L  c #4F403E",
"P  c #51423E",
"I  c #5E453B",
"U  c #764223",
"Y  c #7C4323",
"T  c #73462E",
"R  c #77492F",
"E  c #654435",
"W  c #6F4633",
"Q  c #66493E",
"!  c #6A4A3C",
"~  c #714632",
"^  c #714834",
"/  c #7B4A32",
"(  c #7A513F",
")  c #554442",
"_  c #594743",
"`  c #574845",
"'  c #5B4845",
"]  c #6B4344",
"[  c #614B46",
"{  c #6B4946",
"}  c #634E4A",
"|  c #6A4E4A",
" . c #724848",
".. c #6C5046",
"X. c #66504B",
"o. c #6A534D",
"O. c #755346",
"+. c #7E5442",
"@. c #73544E",
"#. c #785649",
"$. c #77594F",
"%. c #7C594C",
"&. c #6E5751",
"*. c #6F5853",
"=. c #705751",
"-. c #745A53",
";. c #795D56",
":. c #7C5F58",
">. c #833E27",
",. c #823C28",
"<. c #854623",
"1. c #894722",
"2. c #8C4A23",
"3. c #8E4F2E",
"4. c #904526",
"5. c #924E26",
"6. c #9B4E24",
"7. c #975129",
"8. c #9C542C",
"9. c #835137",
"0. c #865338",
"q. c #8A553A",
"w. c #8E583E",
"e. c #915332",
"r. c #9F5A36",
"t. c #915A3F",
"y. c #9F5D3B",
"u. c #A75325",
"i. c #AD5724",
"p. c #AF5825",
"a. c #A5562B",
"s. c #A3582F",
"d. c #AA5A2D",
"f. c #B05723",
"g. c #B25925",
"h. c #B55C29",
"j. c #B95E2A",
"k. c #A55B33",
"l. c #AA5E34",
"z. c #B05E31",
"x. c #BE602B",
"c. c #AF6137",
"v. c #A8613B",
"b. c #B16237",
"n. c #8C5A43",
"m. c #815C4E",
"M. c #8C5F4D",
"N. c #945D42",
"B. c #855F51",
"V. c #956047",
"C. c #9A6044",
/* pixels */
"@ + @ + @ . . .   . @ ; < h h < ; @ . . . + . . . . + . . . @ % < h z x x x z x x z h > % @ @ % > k k < % X . . . . . . . . . . ",
"@ @ @ @ @ @ @ @ @ @ @ ; < h h < ; @ + + @ @ @ @ @ @ @ @ . X $ % < h z x z z z x x z h < % $ $ % < < k < % $ @ X + @ + . @ @ @ + ",
"@ @ @ @ @ @ $ @ @ $ $ ; < h h < ; $ $ @ @ $ @ @ @ $ $ @ @ $ $ ; < k z x x z x z x z z < ; $ $ ; < k k < ; % $ X $ @ $ $ % ; % % ",
"  + @ @ $ % % % % % ; > h z z < < ; % % % ; % ; % % % % % % ; < < z z x z x z x x z z < > ; ; > < z z < > ; % % % ; ; ; < < < < ",
"  @ @ $ % > < , , , < < h z z h < < < < < < < < < < < > > < < < h z z z x x z x x z z < < < < < k z z k < < < > , , < k x ) ) ` ",
"  @ @ $ < < h h z h z z z z z z k z h h < z < < h h h h h h h z z z x x z z x z z z z z z < z z z z z z z z h h h h x ) ' X.o.o.",
"@ @ % ; < k z x z z z z z z z z z z z z x x z z z z z z z z z z z z x z z x z x z x z z x z z z z z z z z z z z z x x ' X.*.-.;.",
"% ; ; < < z x x x z x z x x z x x x z x z x x x z x x x x x x z z x z x z z z z z x x z x x x z z x x z x x x z z x P ' X.-.;.:.",
"< < < < h z z x x z x z x z x z x z x x z x x z x x z L z z L z x z x z z z x z x z x z z x z x z x z x z x z z z x ) _ X.-.-.:.",
"h h z k z z z x z x z x z x x x z x x z z x x x z z z z L z z z z x x z z x z z z x z x x x x z x z x z x x z z z z x ' | =.-.:.",
"z z z z x z x z x x z z z x z z z z z z z z z z z z z z z z z z z z z z z z z z z z z z z z z z z z z x z x x z z x x ' X.=.-.:.",
"x x x x z x x z z z x x x z z z z z z z z z z z z z z z z z z z z z z z z z z z z z z x z z z z z x z z x z z z z z x ' X.=.-.;.",
"x x x x x x z z z z x z x z z z z k k z z z z z z z z z z z z k z z z z z z z z z z z z z k z z x x z z x z z z z z x ' X.=.-.;.",
"z x z z z z x z z x z z z z x x x x z x z x z z x z x z z z z L z x z x x x z z z x z z z z z x z z z x z z z z z z ) _ X.=.-.;.",
"k k h k z z z z x z z z x z z j n c v v n x x ) L x L L L L L L L x L x x L x L L L L n n m P c x x z z z z z z z x P _ X.=.-.:.",
", , < < h z z x z z z z z x x v E W ^ ! Q [ ' ` ` ` ` ` ` ` P ` ` ` ` ` ` ` ` ` ) _ _ ] ! ^ ~ E I x z z z z z z z z x _ X.=.-.;.",
"% % ; > < k z x L < z L < z j E R 3.7.0.+...X.X.X.X.X.X.} } X.X.} X.} } } X.} } X.X...( 0.e.3.R E c k h z z z z k x L _ X.=.-.:.",
"@ # $ ; < k z x L < L < < ) I ~ 3.u.d.r.n.$.*.*.*.*.*.*.*.*.*.*.*.*.*.$.*.*.*.$.&.*.%.w.r.d.a.2.T c z z z x x k z z x ` | *.-.;.",
"@ @ % ; < h z x L L L L ) ) P / 8.h.h.k.w.#.o.@.$.%.B.%.%.B.%.B.%.m.m.m.%.B.%.;.;.-.m.N.c.x.x.7./ I x ) x x L x x x x ` X.*.-.:.",
"% ; ; > < k x L L ) ` ` ` ` [ 9.s.j.j.a.9.! [ ..+.N.C.C.C.C.C.C.C.C.C.C.C.C.V.M.B.;.B.N.c.x.x.8.9.{ ` ) ` ' _ P x x ) ) X.=.-.:.",
"> < < < h h x ) I } X.X.X...O.t.d.x.h.5.T P c E 0.y.c.b.z.v.c.l.c.c.c.c.c.c.v.C.M.B.B.C.c.x.x.r.q.O.X.X.X.X.} ' P x x _ X.=.;.;.",
"h h z h z z x ) } o.&.*.*.=.%.t.c.x.f.2.V y y a Y i.x.x.x.x.x.x.x.x.x.x.x.x.l.y.n.m.%.V.k.x.p.c.t.#.*.*.*.&.o.} _ x P ' } =.-.;.",
"h h h z x x ) ' X.*.-.*.&.&.#.t.s.x.i.1.a - = t U 5.i.p.p.p.i.i.i.i.i.i.p.i.a.e.( $.%.w.v.x.x.k.N.m.-.-.*.&.X.' _ P P ' } o.=.-.",
"< < h z L ) [ o.&.-.-.&.} ' ! 0.r.p.i.1.a = & - a U 1.2.2.1.1.2.<.1.<.<.2.2.Y R E I ! / 8.p.x.c.C.B.;.o.X.' ` ) _ ' ' ' } } X.} ",
"% ; > z P } o.*.-.;.&.} L L L R 7.g.i.2.a = # = - t i a a a t a p p p p p a t L y y P R 7.g.x.c.C.B.*.} L L z L _ } X.} ' ' ) ) ",
"X @ ; < P X.$.;.;.-.o.` L , - V 5.p.i.2.V - @ @ = = - - - - = - - - - = = - = = $ $ y V 5.f.x.c.C.%.&.` z > > z P X.&.X.' ) P x ",
". X % < L [ o.-.-.-.o.` < % - a 2.i.i.2.V = @ + = = - - - - = = - - - - - - = # @ # = a 2.f.x.l.V.#.} L > $ $ < P } X.' _ ) L x ",
". . $ ; k P ' o.*.$.o.` < $ = a 2.i.f.5.V = $ = - t a a a a a a p a a a a a i - & # = a 2.f.x.8.0.! L < % $ @ > k P I ' ' _ _ _ ",
". @ @ % ; < x ' o.-.&.` < $ = a 2.f.i.2.V - & 5 a Y 2.2.2.2.1.2.2.2.2.2.2.2.Y a 5 & = a 2.p.g.8.R I , % $ + @ $ > , z P ' } X.X.",
"@ . @ @ @ % , x } o.o.` h $ = a 2.f.i.1.a - = t U 6.f.f.f.f.i.f.i.p.f.f.f.f.6.U t = = a 2.i.p.5.E - % @ + @ @ @ # $ > z ) X.=.=.",
"@ @ @ . @ @ % < L [ } P < $ = a 1.u.u.<.p - = t U 6.f.f.f.f.f.f.i.i.f.f.f.f.6.U t = - a <.u.u.2.a - @   + @ @ + + @ % h P X.=.-.",
". + . . + + @ > k L L < ; $ = a Y 6.6.<.i = & 5 a Y 2.2.5.2.2.2.2.2.2.5.2.2.Y a 5 & = i Y 6.6.Y p = +   + + + +   + $ , P ' X.o.",
"@ + + @ . + @ % > < < ; $ # = i A 4.4.A i = # & 5 i a V V a a a a a a a a a a 5 = # = i A 2.4.A i & .   + @ + +   + @ , z P ' ' ",
"@ @ @ @ @ @ @ @ $ $ $ $ + X & t Z <.>.C 6 & @ # # = - - - - - - - = - - - - = # @ X & t Z >.>.Z t & @   + + @ + . @ @ ; < x P P ",
"@ @ @ @ @ @ @ + + + + + + @ & 6 B ,.,.B 6 & @ @ # # & & & & & & = = = = = = = @ X @ & 6 B ,.,.B 6 & @ . + @ + @ + X @ ; < z z x ",
"% ; % $ @ + + + + + + . + @ & 6 B ,.S B 6 & @ # = 5 5 6 6 5 5 6 5 5 5 5 5 5 - = # X & 6 B S S B 6 & @ . + + @ + + + @ ; ; < k x ",
"< < ; ; $ + + + + + + + + @ # 6 B S S N 6 & # = 6 p N B B N N N N N N N B N p 6 - # & 6 N F ,.B 6 & @ . + + @     @ @ $ , < z x ",
"z h < > % $ @ + + @ + + . @ & 6 B ,.,.B 6 & # 5 p Z F ,.,.,.F F S S ,.,.<.S B r - & & 6 N F ,.N 6 & @ X + @ @ @ @ @ @ ; < h z x ",
"x z z < < % % @ @ @ @ +   . & 6 N Z F N 6 # & 4 p Z F ,.,.F F F S ,.S ,.,.S Z p 4 & & 6 N F F N 6 & . . + + @ @ @ % ; < h x x ) ",
"x x x x z k < > $ @ + +     & 5 M D D r 4 & # & 6 N B B B B B B B B B B B N N 6 - # o 4 0 D B M 5 # .     + @ $ > < z x P _ _ _ ",
"x x x ) ) ) P z > @ +     + o 4 e M M e 4 # # # - 4 6 6 6 6 6 6 6 5 6 6 6 6 5 - # # # 4 e M M e - #       + # > k P ' ' } X.X.X.",
"z z x _ [ X.} P < # + + + + # : q w w q * # @ @ # # & & & & & & & & & & & & # $ @ @ # * 8 G M 8 * # +     @ $ < L } &.&.@.$.&.*.",
"< h x ) } X.X._ L > % $ $ % ; 7 q w w 8 * o @ @ X $ o o # # # o # # # # # o @ X @ @ o O 3 w w 9 4 ; $ $ $ $ > k ) X.&.@.=.*.$.*.",
"< < < x I } } ' L z z < h < k u e w q 3 O # X X o O O O O O O O O O O O O O O # X X o O 3 q d f s l L < k < k P ' } X.o.o.X.X.X.",
"% ; ; h z ) ' ' ' ' ' ' ) _ ) b g w w 1 O o X o O O 3 3 3 3 3 3 1 1 3 3 3 2 1 O o o o O 3 q d g m I ` ' ' ' ` ' ' ' _ ' ' ` ' ' ",
"@ @ % ; < x P ' } X.o.o.&.&.{ ] H G w 8 O # o & 1 q w d w w w d w w w w w w q 7 & # o O 3 w G H ] { o.o.*.o.} } _ ) x x L L L x ",
"@ @ $ % > h L ` } o.*.=.=.=.&.] K H g 9 7 ; ; 7 9 G G G G G G G G G G G G G d q 7 ; ; : q g H K ] @.*.=.=.=.X.} ) x x z z z z x ",
". + @ % ; h x ) ' X.X.o.o.X.| { ] K J b j l l j b H K K K K K K K K K K K K J b j z j j b J J ] { X.X.o.o.X.| ' ) x z k z h z z ",
". @ @ % > h x L ) _ ' ' ' ' ' { ] {  .] [ ' ' ] {  . . . . . . . . . . . . .{ ] [ [ _ [ {  . .{ [ ' ' ' ' ' ' ) P x z z z z k z ",
"+ @ @ % < h z x L x L x L L ) _ | o.o.*.@.o.o.o.&.o.@.=.=.=.@.@.@.@.@.=.@.=.=.@.| o.o.&.&.=.| } ' ) n x x x x x x x z x z z x z ",
". @ $ % , h z x x x z z z z x ) } o.*.*.*.*.*.=.=.=.=.=.=.=.=.=.=.=.=.=.=.=.*.=.=.=.*.=.=.&.&.' _ x x z z z x z z z x x x x x x ",
". @ $ % , h z z z z z z z z z ) ' } | | o.| o.X.X.X.X.| X.X.X.X.X.o.X.X.X.| X.o.X.| X.o.X.| } _ ) x z z z z z z z x x x ) _ ' ' ",
". @ $ % , h z x x z z z z z x x P _ ` ` ' ' ' ' ' ' ' ' ' ` ' ' _ _ ` _ ' ' ' ' ' ' ' ' _ _ ` ) x x z z z z z z z z x ) ' } } | ",
". @ @ ; < h z x x z z x z z x x x L L L P x P x L x L x L x L x x ) L x L x x L n L L L L L x L x x z z x z z z z x x ) } o.=.-.",
"+   @ % , h z x z z z z z x x z z x z z z x z z x z z x x z z z z z x z z z z z z z x z z z x z z z z z z z z z z x ) _ X.=.-.:.",
"  @ @ ; > h z z z z z z z z z z z z z z z z z z z z z z z z z z z z z z z z z z z z z z z z z z z z z z z z z z z z x _ X.=.-.:.",
"  . @ $ > h z z z z z z z z z x z z z z z z z z z z z z z z z z z z z h z z z h z z h z z z z z z z z k z z z z h z ) _ | *.-.:.",
". @ $ % < h z x x x z x x z z z z z z z z z j z j z z z z z z x z z x z z z x j x x x z z z z x z z z z x z z x z x x ' X.&.-.;.",
"$ % ; < h z L L L L x j x x x z z x z x x L L L x x z x x L x L x L L L L L L L L x x x x x x x x L n ) x x L x x x ) ' X.=.-.:.",
"h h z x L ) ` ' ' _ _ ) L x z z z x x L ) ) ) P x x x x ) ) _ _ ' ' _ _ _ ` _ ` _ _ ` ) x x x x ) ` _ ' ' ' _ _ _ _ ' | &.=.-.;.",
") ' ' ' [ } | | o.} } ' ) x x z z z L P _ } } _ ) x x ) _ } X.o.| X.X.| | | X.| X.| } _ ) x x P _ } | | | X.X.X.X.X.X.o.=.-.-.;.",
"X.o.@.o.&.*.*.=.=.=.o.} ) x z z z z L _ } o.o.} ` x x ) [ o.*.*.*.=.*.*.*.&.*.*.-.=.&.' _ x x ) ' &.*.*.=.=.&.=.=.=.=.-.-.;.-.-.",
";.-.-.-.-.;.-.;.;.-.=.} ' L z z z z x _ o.*.=.X._ L L _ } =.-.-.;.-.-.-.-.-.-.-.-.-.&.} ) n ) ) | &.-.;.;.-.-.-.;.-.-.-.-.-.;.;.",
";.;.:.:.;.;.;.;.:.;.=.o.' x z z z z L _ o.=.*.| _ P x _ X.=.:.;.:.:.;.;.;.;.;.:.:.:.=.| ` L x ` } *.;.:.:.;.;.;.;.;.;.;.;.;.-.-."
};
