/* XPM */
static char *sol1660343345[] = {
/* columns rows colors chars-per-pixel */
"64 84 235 2 ",
"   c None",
".  c #010000",
"X  c #0B0503",
"o  c #0B0906",
"O  c #0E0C09",
"+  c #0E0608",
"@  c #110503",
"#  c #120C0A",
"$  c #1B0E0A",
"%  c #190805",
"&  c #15110C",
"*  c #1B140E",
"=  c #1C1715",
"-  c #1F1A11",
";  c #1A1615",
":  c #230905",
">  c #280B07",
",  c #340B07",
"<  c #29110E",
"1  c #24130E",
"2  c #38110B",
"3  c #231C14",
"4  c #261713",
"5  c #331612",
"6  c #3C1A15",
"7  c #341914",
"8  c #2B241A",
"9  c #272118",
"0  c #322A1C",
"q  c #372A1D",
"w  c #2B2423",
"e  c #342C22",
"r  c #372B29",
"t  c #3A3122",
"y  c #3D362F",
"u  c #3D2A32",
"i  c #311E26",
"p  c #440F08",
"a  c #45110C",
"s  c #4A130D",
"d  c #48180B",
"f  c #4F1206",
"g  c #59180C",
"h  c #4B1A12",
"j  c #441E17",
"k  c #581A12",
"l  c #621606",
"z  c #671D0D",
"x  c #731E0F",
"c  c #49251B",
"v  c #56271C",
"b  c #4C311D",
"n  c #5E321D",
"m  c #72220F",
"M  c #6A2615",
"N  c #732512",
"B  c #7B2717",
"V  c #592B22",
"C  c #453926",
"Z  c #42392A",
"A  c #4B3E29",
"S  c #463825",
"D  c #543D2D",
"F  c #5C3626",
"G  c #47342F",
"H  c #653629",
"J  c #733C2C",
"K  c #783726",
"L  c #6D332A",
"P  c #4E412B",
"I  c #52442E",
"U  c #4A4236",
"Y  c #544630",
"T  c #564933",
"R  c #5A4C35",
"E  c #5A4E39",
"W  c #5F5039",
"Q  c #5E5037",
"!  c #78452E",
"~  c #674835",
"^  c #7A4937",
"/  c #63543B",
"(  c #6A593F",
")  c #6B553D",
"_  c #74553B",
"`  c #634127",
"'  c #5D4449",
"]  c #6B5C42",
"[  c #6C5B45",
"{  c #735B45",
"}  c #6D4D56",
"|  c #6E5051",
" . c #716146",
".. c #75644A",
"X. c #7B6A4E",
"o. c #7C664C",
"O. c #7E6D51",
"+. c #6F6048",
"@. c #726B6B",
"#. c #7C7474",
"$. c #686060",
"%. c #7F5F60",
"&. c #862819",
"*. c #92311E",
"=. c #8B2E23",
"-. c #972E21",
";. c #8E3129",
":. c #9E3123",
">. c #96342B",
",. c #923C34",
"<. c #A33325",
"1. c #AB3A2B",
"2. c #AA3D3B",
"3. c #A53C3A",
"4. c #B53F30",
"5. c #834D36",
"6. c #86553E",
"7. c #935939",
"8. c #994433",
"9. c #AB4539",
"0. c #B94536",
"q. c #9A623C",
"w. c #C4493A",
"e. c #CF503F",
"r. c #835C42",
"t. c #885843",
"y. c #945B47",
"u. c #94514A",
"i. c #AC574C",
"p. c #99674C",
"a. c #826F52",
"s. c #8C6D55",
"d. c #837255",
"f. c #897759",
"g. c #8B795B",
"h. c #887557",
"j. c #927D5E",
"k. c #997656",
"l. c #926A4E",
"z. c #AA7244",
"x. c #B87A47",
"c. c #A47D5D",
"v. c #A97355",
"b. c #B36952",
"n. c #876969",
"m. c #937E60",
"M. c #837B7B",
"N. c #887F7D",
"B. c #967A78",
"V. c #CA5343",
"C. c #D45443",
"Z. c #D95746",
"A. c #DA5947",
"S. c #C56A51",
"D. c #D67767",
"F. c #CD7267",
"G. c #E37E65",
"H. c #B98455",
"J. c #AE855A",
"K. c #958162",
"L. c #9B8464",
"P. c #9C886A",
"I. c #A18666",
"U. c #A58B6A",
"Y. c #AB8A69",
"T. c #AB916E",
"R. c #A38F72",
"E. c #AB8D78",
"W. c #AE9471",
"Q. c #AA9579",
"!. c #B39672",
"~. c #B59975",
"^. c #BA9C77",
"/. c #BD9E7A",
"(. c #B49A7B",
"). c #B58F6D",
"_. c #BFA07A",
"`. c #C48958",
"'. c #D58C52",
"]. c #D58F55",
"[. c #C68F6A",
"{. c #D89966",
"}. c #CC9C74",
"|. c #C39B74",
" X c #C4976F",
".X c #E59271",
"XX c #C2A27C",
"oX c #DAA87D",
"OX c #DFA06D",
"+X c #E2A36E",
"@X c #E4A977",
"#X c #978C8C",
"$X c #B59D83",
"%X c #AF9B8F",
"&X c #BBA589",
"*X c #B9A29C",
"=X c #BDAAAA",
"-X c #C4A682",
";X c #CAAD8C",
":X c #C6A987",
">X c #C3AC92",
",X c #C6B096",
"<X c #CCB295",
"1X c #CCB59C",
"2X c #CDB79C",
"3X c #D1B596",
"4X c #D4BA9D",
"5X c #D9B897",
"6X c #D3AF8C",
"7X c #E3AC82",
"8X c #EBB485",
"9X c #EEBB8D",
"0X c #EAB588",
"qX c #E7BE97",
"wX c #F1BF92",
"eX c #F1BB8C",
"rX c #D8BFA3",
"tX c #C8B8B9",
"yX c #CEB7AE",
"uX c #C09C88",
"iX c #F3C396",
"pX c #E4C09A",
"aX c #DDC5AB",
"sX c #DCC3A8",
"dX c #E0C9AF",
"fX c #E6C7A3",
"gX c #F8CDA2",
"hX c #F3CCA4",
"jX c #FDD6AB",
"kX c #FFD9AE",
"lX c #F8D1A7",
"zX c #FFDDB1",
"xX c #E3CBB2",
"cX c #FFE0B3",
"vX c #DED4CB",
/* pixels */
"                                                                                                                                ",
"                                                                        . . . . . . . . .                                       ",
"                                                                        . . . . X . . . .                                       ",
"                                                  . . . . . . . . . . o q t t t t t t t 9 . . . .                               ",
"                                                  . . . . . . . . . . X C I A I P P P P 0 . . . .                               ",
"                                          . . . . 2 d d d d d 2 > 5 T / g.j.a. .R P / ....X. .R U o .                           ",
"                                          . . . . h B N N N N M a v g.j.|.XXK.g./ P ] g.I.-X~.K.X.o .                           ",
"                                  . . . o 9 9 9 9 d g m N B >.=.B K y.y.s.a.g.g.X.] ] ( d.U.L.K.a.U Z &                         ",
"                                  . . . o C P P P j a z m =.3.3.2.2.2.3.D D O.g.g.g.] C / g.g.h.g.g.O.& .                       ",
"                                O - * . o C P / / ~ F n n H ,.8.>.>.3.3.J ! j.I.E.Q.m.o. . .a.L.P.Q.R.U e ;                     ",
"                              . * P t . o C I O.g.g.g.( P P P b B B 3.2.2.2.).XX4XdX<XXXj.A ( XX:XaXsXP.h.9 .                   ",
"                            O & 0 Q P * * C I O.f.a.X.( Q / ( ) J J ;.;.>.3.c.!.;XrX:X~.K.Q  .L.T.4X4XU.K.8 .                   ",
"                        . . 3 A / f.X.P P P I O.f./ P ] f.P._.T.f.r.h s N B a.g.!.XXT.g.f.g.X.I W ^.XXXX/.0 .                   ",
"                        . . 8 T / d...R Y P I h.K.( Y X.K.W.:X_.g.O.h h M M r.a.U.^.R.K.K.K.O.P R T.^.-X&Xr .                   ",
"                        . . Z h...I Q d.X.Y I U._.K.h.U._.;XaX,Xg.O.D G d s M B r.g.$XsX<X_.P.I T g.K.2XsXy .                   ",
"                        . . Z g...P Q g.h.R R W.XXL.g.T.XX3XaX&Xg.a.E D j d z N 6.K.$XaX<X_.I.I T O.g.4XaXZ X                   ",
"                        . . Z g...P / ~.!.d.h.<XsXR.f.&XsX3XXX_.g.f.d.X.I A M N 6.g.T.:X!.K.d.P P Y / ,XaX+.t - .               ",
"                        . . Z g...P ( /./.j.g.2XaXQ.f.&XaX3X_._.g.g.g.h.T I M M 6.g.U.XXT.h.X.I P P T ,XaXX.U - . .             ",
"                        . . 8 R ( X.g._.^.m.K.2XaX:X!.<XdXsXsX&Xg.j.!.T.d.o.v g n ! r.L.O.R / X...I R ,XaXP.X.e . .             ",
"                        . . 3 P / g.K.XX^.g.j.2XaX;X_.3XaXdXaX,Xg.K.XX/.j.h.v a z m ^ g. .P R g.d.I T ,XaXR.g.t . .             ",
"                        . . O * Z f.K.|.^.g.g.-X;X3X4X&XQ.&XdX2XT.T.I.L.( / _ { K m ` ) ] ..X.g.O.I T ,XaXR.f.t . .             ",
"                        . . . . w g.K.XX^.K.g.(.XX4XxX(.d.(.dX4XXX^.g.d.I P O.g.! m n b / g.g.g.d.I Y ,XaXR.g.t . .             ",
"                        . . . . t H.J.U.I.r.r.L.P.-X<X_.T.Q.$X&X3X:Xg.g. . .L.U.5.m ^ g.g.g.O.] ( P T &X3XP.f.t . .             ",
"                        . . . . b '.`.g.a.! J d.K.~.XXXX_.T.f.R.dX2XK.g.f.g.~.XX7.m z.XXW.g.O.P P P Y T.XXL.g.t . .             ",
"                          . . . b '.`.Y.Y.v.p.~ E [ { W.5XT. .f.&X$X....L.U.T.T.^ g t.!.j. .( P P P T (.<XP.g.t . .             ",
"                              . b '.{.@X8X0XoX0 . . . m.cX~.A Q g.O.P T !.XXK.h.F p ~ j. .I P P P P R ,XaXR.g.t . .             ",
"                              . b '.{.eX9X9X7X0 . r U %XzX|._ { X.+.P R _.;XL.f.F p H { ) / R P A e C &XrXK...0 . .             ",
"                              . b '.{.jXkXkXhXe . %XvXvXjX8X'.z.P P P E ,XaXP.g.H a d a H g.X.I C o # P._.] P - . .             ",
"                              . b ].+XjXkXkXhXt # #XtXxXkXqX{.H.) / P Q 1XaXK.O.V a a a F d.[ C 0 . O U.:X..T 9 . .             ",
"                              . Y @X9XjXkXkXhX' i u G E.kXjXgXgX@X XY R 1XaX..P c a a a c T t o X . # &XaXP.h.e . .             ",
"                              . I 8XeXjXkXkXhX' i u u E.zXkXkXgX0XXXY R ,XsX+.P c 2 a a c A q . . . O %XsXP.h.e . .             ",
"                              . D 8XeXjXkXkXlX%.' ' ' %XkXkXkXhX8X}.Y R !.&X/ P 1 X > a s s 5 . . . o O.K.] I 3 . .             ",
"                              . D 7X0XjXjXkXlXn.} } } $XzXkXjXgX8X}.I R !.XX( A * . : a a a , X . . o ..g./ P - . .             ",
"                                  q R 0XiXjXkXpX5X5XqXhXjXkXkXgX8X}.Y Q ;X4X] A * . : s , @ * t 0 . O m.~.( P * . .             ",
"                                  . q oX8XjXkXkXkXkXkXkXkXjXzXgX8X}.T Q ,XsX+.P - . : a > . & P C X O I.XX( P - . .             ",
"                                      A ~ {.+X9XwXwXwXwXwXiX9X8X{.`.I ~ 1XsXU * X . X % + . =  .] t t h.L./ P - . .             ",
"                                      . 1 x.].@X0X8X8X8X8X8X8X+X'.x.I R 1XsXr . . . . . . . 9 f.d.I I a.h./ P - . .             ",
"                                        $ F ` _ | p.v.v.v.v.v.p.` F 9 e (.;Xe . . . . . . . 3 d.d.I Y K.U./ P - . .             ",
"                                          . . . . c K L J J J b . . . & U._.8 . . . . . . . 9 d.a.T T W.XX{ P - . .             ",
"                                          X X b F p.Y.v.v.7.M k > : . & (.;Xw . . . O 9 & . 8 L.g.q 0 K.T.I 8 * .               ",
"                                          . X z.'.iXzXgX0Xb.l l l f X & *XsXt . . . 9 I 0 . 0 _.R.O o X.h.9 .                   ",
"                                          S D `.+X@X7X.X.Xb.x m &.M X & %X&Xw . O * 0 I 0 & y _.U.O . +.g.9 .                   ",
"                                      X = }.8XgXjXb.:.w.A.0.:.0.Z.9.X o X.g.3 . 0 P P P P P ( _.U.O o +.h.9 .                   ",
"                                      . 1 7XeXjXjXS.<.w.A.w.:.1.e.9.5 4 [ [ ; . 0 I I T Y P ( !.L.O o [ O.3 .                   ",
"                                      . 3 pXkXkXjXG.C.C.Z.w.:.:.<.1.V.0.1 o . . 0 P ( f. .P Q K.O.o X C I & .                   ",
"                                      X 3 qXjXjXjXG.Z.C.e.4.-.-.*.<.C.0.< X . . 0 P ( K. .t T O.+.o X e C & .                   ",
"                                      . 1 oX9XjXjXG.e.4.1.&.x g p g :.<.=.&.: . 0 P ( f.Q o - Y Z X . X o                       ",
"                                      . 1  X7XgXjXG.e.4.:.&.g f > p -.<.<.:.> . 8 P ( K.T . & P C X . . .                       ",
"                                          0 c H.{.7.N l p , @ @ X > -.<.w.w.s : $ # 0 R e . - X.] o .                           ",
"                                          . @ z.'.=.l p , % . . . % -.1.C.C.k , X . 9 I 0 . 9 h...O .                           ",
"                                          . # |.iXS.0.*.B g : % . < 0.w.Z.C.N f % X 9 P 0 . & Q P o .                           ",
"                                          X # 6XkXG.Z.0.<.x , : . < V.Z.Z.C.B l : . 9 P 0 . & P C o .                           ",
"                                          . X | s.V.Z.e.w.*.f , . < V.C.Z.C.-.&.> . # 3 *   O 3 ;                               ",
"                                          . . < 5 9.A.Z.A.<.l p . < V.Z.Z.C.1.<.2 . . . .     . .                               ",
"                                        X # $ c S 9.A.w.0.3.L b X : 0.0.C.Z.1.<.2 . . .       .                                 ",
"                                      . X 5 6 ~ _ V.Z.0.:.u.n.' . % -.<.e.C.1.:.2 .                                             ",
"                                      . X 6 c H ' b.D.b.b.u.%.D . * i.i.F.F.i.u.7 .                                             ",
"                                      . X V V 6 a #XtXtXtXB.V j . w =XtXtX=XB.%.w .                                             ",
"                                      . X H H c 6 B.,X*X=Xn.V 6 . 9 *X1XtXtXB.%.w .                                             ",
"                                      . # t.y.H V u.y.| L V 5 1 . 4 `.{.gXlXl.L 5 .                                             ",
"                                      . # ^ t.H V 8.y.^ L V 7 < X 4 z.H.0X5Xt.H < X                                             ",
"                                          + + 5 6 | p.y.y.! V V 5 < $ $ = 3 # @                                                 ",
"                                          . . < 5 ^ u.y.y.^ V v 5 < . . . X X .                                                 ",
"                                              X X $ ; 1 * $ # X X X X .                                                         ",
"                                              . . . . . . . . . . . X .                                                         ",
"                                              X X { c.c.c.c.c.k.q.! X X                                                         ",
"                                              X X c.eX8XeX0XeX@X].x.@ X                                                         ",
"                                          M.@.& . c.8X8X8X8X8X{.q.5.X X $.N.M.M.                                                ",
"                                          M.#.= X J.0X8X8X8X8X[.J H X # @.N.M.M.                                                ",
"                                        M.M.#.= X p.+X@X8X8X8X[.! V X # @.M.M.M.M.                                              ",
"                                      M.M.M.#.= . 7.'.+X8X8X8X[.J H X # @.M.M.M.M.M.                                            ",
"                                      M.M.M.#.= X k.+X8XwXeX8X[.7.! X O @.M.M.M.M.M.                                            ",
"                                      M.M.M.#.; X W.kXkXkXiX8X@X'.z.X # @.M.M.M.M.M.                                            ",
"                                      M.M.M.#.r 3 E.fXsXsX5X6X}.`.v.8 w @.M.M.M.M.M.                                            ",
"                                              #.#.M.N.#XN.M.N.N.M.M.#.#.M.M.                                                    ",
"                                              M.M.M.M.#.M.M.M.M.M.M.N.M.M.M.                                                    ",
"                                                                                                                                ",
"                                                                                                                                ",
"                                                                                                                                ",
"                                                                                                                                ",
"                                                                                                                                ",
"                                                                                                                                ",
"                                                                                                                                ",
"                                                                                                                                "
};
