/* XPM */
static char *d9d5d86e42874179e69269d79688025cSU43yxGpIDSyftB1[] = {
/* columns rows colors chars-per-pixel */
"64 83 239 2 ",
"   c None",
".  c #020100",
"X  c #0A0403",
"o  c #0B0906",
"O  c #0F0C08",
"+  c #110504",
"@  c #190904",
"#  c #120D09",
"$  c #1A0D09",
"%  c #170704",
"&  c #1A150E",
"*  c #15120B",
"=  c #1E1A12",
"-  c #1B1610",
";  c #280A06",
":  c #370C07",
">  c #27130E",
",  c #231C13",
"<  c #271919",
"1  c #341B14",
"2  c #371914",
"3  c #33120D",
"4  c #292318",
"5  c #342A1D",
"6  c #3A2B1F",
"7  c #372317",
"8  c #352D22",
"9  c #392828",
"0  c #3C3323",
"q  c #3B3534",
"w  c #2A2524",
"e  c #311D26",
"r  c #420E09",
"t  c #46110C",
"y  c #4A140D",
"u  c #4D1206",
"i  c #56160A",
"p  c #4B1A13",
"a  c #571B13",
"s  c #651A0A",
"d  c #681A0A",
"f  c #661E15",
"g  c #48271B",
"h  c #56261C",
"j  c #51331E",
"k  c #6C2411",
"l  c #682618",
"z  c #732413",
"x  c #742A16",
"c  c #792919",
"v  c #78321D",
"b  c #71230F",
"n  c #4A2C23",
"m  c #592920",
"M  c #423624",
"N  c #443926",
"B  c #493D27",
"V  c #4B3E29",
"C  c #443729",
"Z  c #583A26",
"A  c #4B3839",
"S  c #573C3A",
"D  c #65382A",
"F  c #7A3324",
"G  c #763929",
"H  c #633E33",
"J  c #67342A",
"K  c #4E412B",
"L  c #51442D",
"P  c #4D4332",
"I  c #534632",
"U  c #564831",
"Y  c #5A4C35",
"T  c #5B4D3B",
"R  c #5A4735",
"E  c #5E503A",
"W  c #5E5037",
"Q  c #77452E",
"!  c #654836",
"~  c #7B4532",
"^  c #774A39",
"/  c #63543C",
"(  c #67583F",
")  c #68583E",
"_  c #77563A",
"`  c #6F4A2E",
"'  c #554E4E",
"]  c #564D43",
"[  c #574F49",
"{  c #6B5C42",
"}  c #655845",
"|  c #745A43",
" . c #785845",
".. c #654551",
"X. c #685A59",
"o. c #725152",
"O. c #736247",
"+. c #75654B",
"@. c #7B654B",
"#. c #7A6A4E",
"$. c #7E6D51",
"%. c #746258",
"&. c #6F6045",
"*. c #7A696A",
"=. c #745F60",
"-. c #84291B",
";. c #9A3428",
":. c #9B3A35",
">. c #883327",
",. c #A23325",
"<. c #AC3A2B",
"1. c #A6382A",
"2. c #A53C39",
"3. c #A73D38",
"4. c #B63F30",
"5. c #834937",
"6. c #86543E",
"7. c #B84434",
"8. c #A74238",
"9. c #9E683D",
"0. c #97673D",
"q. c #88623D",
"w. c #B76F3F",
"e. c #C54B3B",
"r. c #C64B3B",
"t. c #855646",
"y. c #955D48",
"u. c #8A5C5A",
"i. c #A95B4C",
"p. c #84664A",
"a. c #9B6249",
"s. c #826E52",
"d. c #896953",
"f. c #847255",
"g. c #8A7356",
"h. c #85745A",
"j. c #897659",
"k. c #8C7A5C",
"l. c #917152",
"z. c #927D5E",
"x. c #9B7859",
"c. c #936D51",
"v. c #B47249",
"b. c #8D7B64",
"n. c #927F60",
"m. c #837B7B",
"M. c #8F7E7B",
"N. c #9B7972",
"B. c #846B6C",
"V. c #A67F74",
"C. c #D45443",
"Z. c #D95746",
"A. c #DB5847",
"S. c #DA5B4A",
"D. c #D55948",
"F. c #CD5140",
"G. c #D96E55",
"H. c #E15B49",
"J. c #BC8557",
"K. c #A88259",
"L. c #958162",
"P. c #9C8464",
"I. c #9E8869",
"U. c #998874",
"Y. c #A58C6B",
"T. c #A78766",
"R. c #B48A67",
"E. c #AC916E",
"W. c #A68A73",
"Q. c #AA957A",
"!. c #AA9375",
"~. c #B59975",
"^. c #B99B76",
"/. c #BD9E79",
"(. c #B39676",
"). c #BE946C",
"_. c #BEA07C",
"`. c #98805F",
"'. c #CA854E",
"]. c #C88856",
"[. c #D58D52",
"{. c #D98E51",
"}. c #D5915B",
"|. c #DB9B65",
" X c #C99A73",
".X c #D29C75",
"XX c #C3A37D",
"oX c #D9A278",
"OX c #D8A57C",
"+X c #DFA069",
"@X c #E2A778",
"#X c #EAB07A",
"$X c #AC9884",
"%X c #B29E8A",
"&X c #BB908D",
"*X c #BBA589",
"=X c #B0A79F",
"-X c #A79D9D",
";X c #C89A97",
":X c #C09E86",
">X c #C4A681",
",X c #C9AC8A",
"<X c #C6A987",
"1X c #C6AD92",
"2X c #CBB295",
"3X c #CCB59A",
"4X c #C7B095",
"5X c #D3B99C",
"6X c #D3B595",
"7X c #D4AD89",
"8X c #E2AC80",
"9X c #E4AA83",
"0X c #EAB385",
"qX c #ECB88B",
"wX c #F0B98A",
"eX c #E2BC95",
"rX c #F3BC93",
"tX c #F0B692",
"yX c #D6BEA2",
"uX c #C6B8BA",
"iX c #F3C395",
"pX c #F6CA9D",
"aX c #F7CA9D",
"sX c #EBC499",
"dX c #DDC5AA",
"fX c #DBC2A7",
"gX c #E1C9AE",
"hX c #EAC8A4",
"jX c #F9CEA2",
"kX c #F4CFA8",
"lX c #FAD1A5",
"zX c #FFD9AE",
"xX c #FAD4AA",
"cX c #E3CBB0",
"vX c #E9CEB5",
"bX c #FFDCB1",
"nX c #FFE0B3",
"mX c #CBBDC0",
"MX c #E5E0DA",
/* pixels */
"                                                                                                                                ",
"                                                                                                                                ",
"                                                                                                                                ",
"                                                                                                                                ",
"                                                                                                                                ",
"                                      . . . . . . . .                                                                           ",
"                                      & & & & & & & & #                                                                         ",
"                              . . . O B K K K K V V K = . . . . . . . . . .                                                     ",
"                            & = , 4 8 Y Y K K Y Y / } 0 = $ + + % @ @ % % %                                                     ",
"                        . . 0 h.L.^.E.k.s.I L #.j.E./.P.h.! r i k k k k k k @ . . .                                             ",
"                        O * P k.P./.E.g.$.Y U $.k.E.(.P.g.^ a a c c z b k k $ o o o X                                           ",
"                    . . P $.f.k.k.z.f.U Y $.f.k.j.( R >.i.2.:.:.3.;.x b i y M N N B , . . . .                                   ",
"                    o X ] L.L.k.k.g.#.L Y j.n.z.k./ V >.2.2.2.2.2.:.x k i p Z U K K 4 . . . .                                   ",
"                . . Y +.Q.yX<X~.z.U { E.(.3X3X/.~.i.:.8.2.;.c v D L Z L | #.#.#.W K 4 . & 0 5 . .                               ",
"                . . } k.1XgX3XXXz.L ) /.>XfXdX<X Xi.:.2.3.;.x l K K K U f.k.k.k./ K 4 . = L 0 . .                               ",
"                . X f.~.XX,XI.) O.+.s.L.Y.<X<XW.I.5.F c h G q.s.T.`.#.+./ / $.k./ K 0 5 K #.{ 8 5 . .                           ",
"                . . k.XXXXXXf.B / k.k.j.L.^./.L.k.Q b i u ! k.I.XX~.`.f.U K #.k./ K K K ( k.#.K N X .                           ",
"                . o U.5X^.T.+.K ) E.(.*X*XI.I.6.Q l i h g ! j.I.6X2XE.Y.#.O.I.E.{ K W O.&.( { O.E o .                           ",
"                . . $XcXQ.j.&.B O.XX,XdXyXL.f.v b i t g K ) k.!.dXfXXX^.L.k.~.XXO.B &.k.O.K Y k.#.o .                           ",
"              X = 4 $XcXI.&.E K | Y.~.6X,XL.g.v b h g U ) +.k.I.6X6X2X,XL.k.*X6Xk.) f.Y.$.K Y k.+.o .                           ",
"            . X 0 U *XcXh.B V V / k.L.XX^.L.f.v k Z K &.$.L.L.P./.>XdXfXL.k.3XdXQ.j.Y.XXz.K Y k.#.o .                           ",
"            . o I ( *XcXh.V U / ) O.f.E.Y.p.q.l s ! / s.I.L.$.I.,X6XfXfXY.I.5XdXQ.g.E.XXI.E ) @.} o .                           ",
"            . o +.k.3XgXh.V { k.O.K Y g.g.v k y t _ L.E._.E.L.I.dXdXdXdXXXXXyXdXQ.f.Y.XXE.k.$.K 0 X .                           ",
"            . o +.b.4XdXh.V { k.#.Y / #.@.x x h j ) #.P.~.E.L.Q.dXdX3X3X,X,X5XyX!.j.E.XXE.j.#.0 5 . .                           ",
"            . o +.b.2XcXh.B { k.k.j.#.L Z x x p.f.W K O.L.P.^.,XdXfXL.L.fXfX,X_.P.k.Y.XXE.k.{ o . . .                           ",
"            . o +.k.4XfXf.B } f.f.k.s.W R x x d.`.) U O.L.Y.XX,XfX*XL.I.3XfX*X^.P.s.T.^.E.z.{ X . . .                           ",
"            . o #.k.~.>X@.K K I ) j.`.~.R.v c T.^.L.f.j.j.Q.dX4XL.I._._.XXXXI.`.t.Q p.n.K.[.0.. . . .                           ",
"            . o #.k.~.XX#.V K V / f.L./.R.v x T./.P.L.j.f.Q.fX,X$.L._._.^.E.L.$._ ~ t.n.K.{.9.. . . .                           ",
"            . o +.k.1XfXf.K K K L U ) `.g.h a d.L.E.^.$.U +.I.j.U O.pX5XN , = = c..XoXOX|.{.9.X .                               ",
"            . o +.k.2XgXf.B K K K K Y f.p.y y p.L.~.XX$.K ) j.+.K &.lXsX4 . . . x.qX0X0X@X{.9.X .                               ",
"            . o P / (.,XT * 5 K W +.{ Z j y p @.j.*XyXh.K K W &.v.J.xXxX-X-Xw . T.kXjXlX0X[.9.X .                               ",
"            . . 0 L I.XXV . , K / L.@.u t t p @.L.*XcXL.K K K ` [.|.xXbXMXMXq . Y.bXzXzXqX[.9.X X                               ",
"            . o E O.*X5XP . O = 8 ) ! t r r y ! ( *XcXk.K | T.).0XiXzXkXU.*.9 = (.bXbXbXrX@Xv.. .                               ",
"            . o +.L.4XcX[ . . . & V C y y y y B K *XcXb.B l.0XwXxXxXbXsXA e 9 e (.bXzXzXaXwXR.X .                               ",
"            . o E &.!.*XA . . . $ g g y r ; > N K !.6Xg.B l.0XiXbXzXbXhX..A A A :XbXzXzXaX0XR.X .                               ",
"            . o N K +.k.8 . . . % y t y : X . 0 K P.XX#.B l.#XiXzXzXzXhX=.......,XzXzXzXjXwXR.X X                               ",
"            . . 0 K j.I.0 . o - > ; : t t . . 0 K Y.2Xf.K p.0XiXzXzXzXkXV.N.N.N.6XzXlXaX8Xx.p.+ .                               ",
"            . X N L T.XXV . , P 5 . + t : . X M U %XgXk.K l.0XiXzXzXzXzXbXbXbXbXzXzXaXwXc.. .                                   ",
"            . X N L P.~.P # 5 E 0 . X : 3 . . 5 N $XcXb.B p.@X0XjXjXjXjXlXlXkXkXaXaXOXR. .. .                                   ",
"            . X 0 L $.k./ B { k.T . . . . . . . . U.cXb.K q.[.|.0X0X0XtX0X0X0XtX+X}.Q o O                                       ",
"            . . 0 L f.L.( K { k.T . . . . . . . . U.gXh.M _ v.'.oXoXoXoXoXoX.X XJ.v.` . .                                       ",
"            . X N K P./.O.B { k.T . . . . . . . . h.>XT X X # 7 5.~ 5.5.5.~ 1 * $ $ @                                           ",
"            . X 0 K T.XXO.N { z.E . . . . . . . . h.<XI . . . > G G ~ ~ ~ ~ > + X .                                             ",
"                O O &.L.N O / /.+.. O 0 0 . . . . U.dX} . ; u i s v  XoXeXeXJ.v.g .                                             ",
"                . . } k.8 . / <X$.. # V N X . . . U.cX[ . ; d s s v #XwXlXxX+X[.j .                                             ",
"                . X } k.8 . Y XXz.5 0 K V 8 5 o . &.Q.A . p 7.<.-.;.G.G.v.D.9XrX XK.! .                                         ",
"                . . } k.8 . T XX`.L K K K K K O . } k.q . h H.F.,.<.C.r.,.,.9XzXiXwX| . .                                       ",
"                . . K ( 4 . P T.f.V U O.&.K B O . , 0 D >.;.4.<.,.<.C.C.F.i.tXxXjXjX@.. X                                       ",
"                . . 8 L = . C k.+.K Y k.f.U B O . . . F H.e.,.,.,.<.r.Z.A.S.rXzXbXbXs.. .                                       ",
"                  . , 4 O . 8 O.U 4 0 k.$.U B O . 3 y >.e.;.d z -.-.e.e.C.S.rXzXjXjX .. X                                       ",
"                    . . . . 4 K 5 . = h.f.U B O . z ,.,.,.f ; r d d ,.,.C.S.iXzXiXwX| . .                                       ",
"                      . . . 4 / 0 . - &.&.0 4 $ + -.4.1.,.d ; ; r u z c 8.7.oXiXR.x.! .                                         ",
"                        . . C L.E . O K N X . ; : 3.A.7.,.a . . . X ; : i d v.'.j .                                             ",
"                        . . 0 $.I . # K N . . : : 3.A.7.<.l . . X % u i z -.G.+XZ .                                             ",
"                        . . 4 K 8 . # K N X X u s 7.A.Z.Z.F . + ; t -.,.F.C.tXbXT .                                             ",
"                        . . = N 4 . # 0 8 X . i d 7.A.Z.A.F . + : i ,.<.C.S.9XeXI .                                             ",
"                            o X X     X . . X c ;.e.Z.Z.A.F . @ i z F.C.Z.C.J n $ .                                             ",
"                              . .     . . . X -.,.F.Z.Z.Z.F . $ d -.F.C.C.C.m 2 # . .                                           ",
"                                          . X c ,.e.Z.7.<.f . < o.t.1.<.C.C.5.! g 3 # . .                                       ",
"                                          . . -.,.e.S.7.,.a . < B.u.;.1.C.C.t. .n 2 $ . .                                       ",
"                                          . X ..u.&X;X;X&XX.. ,  .u.&X&X;X;XH p n m > . .                                       ",
"                                          . X X.B.-XuXuXmX*.. , ^ u.uXuXuXuXS 3 a J 1 . .                                       ",
"                                          . X H  .;XvX6XOX| . # 6 V =.B.V.V.H m G t.6 . .                                       ",
"                                          . X J G 9XbX#X{.Q . X > , 9 A t.y.G m 6.a.n . .                                       ",
"                                            X 2 g | j. .Q g $ > 2 n ! o.y.y.m g n Z 1 .                                         ",
"                                              . . . . . . @ 3 g J G y.a.y.y.n 1 # .                                             ",
"                                              . X . X . . + $ > 2 n Z H J H 1 ; + .                                             ",
"                                                      . X . . . . . . . . . . .                                                 ",
"                                                      X . $ 7 7 8 8 6 5 6 6 O .                                                 ",
"                                                      . . Z '.}.8X@X8X8X8XoX6 .                                                 ",
"                                                      # . Z '.}.0X0X0X0X0X8X6 .                                                 ",
"                                              m.m.m.m.q . 2 Q a.9X0X0X0X0X8X6 . ' m.                                            ",
"                                              m.m.m.m.q . 1 G a.0X0X0X0X9X@X6 . ' m.m.                                          ",
"                                          m.m.m.m.m.m.q . 2 G a.9X0X0X#X|.}.7 . ' m.m.m.m.                                      ",
"                                          m.m.m.m.m.m.q . 1 Q a.0X0X0X9X}.'.7 . ' $Xm.m.m.                                      ",
"                                          m.m.m.m.m.m.q . j v.].9XqXjXjXiXqX8 . ' *.m.m.m.                                      ",
"                                          m.m.m.m.m.m.q . Z {.}.7XeXzXzXbXkXq . ' -X*.m.m.                                      ",
"                                                  m.m.X.' X.T.E.$X$X%X%X%X%XX.' X.                                              ",
"                                                  m.m.m.m.m.m.m.*.m.m.m.m.*.m.m.                                                ",
"                                                    m.m.m.m.m.m.m.m.m.m.m.$Xm.m.                                                ",
"                                                                                                                                ",
"                                                                                                                                ",
"                                                                                                                                "
};
