/* XPM */
static char *result[] = {
/* columns rows colors chars-per-pixel */
"64 64 252 2 ",
"   c #1D1E1F",
".  c #222222",
"X  c #2D2A29",
"o  c #403734",
"O  c #584642",
"+  c #6D554F",
"@  c #795D56",
"#  c #7C5F58",
"$  c #7B5F57",
"%  c #7A5E56",
"&  c #574641",
"*  c #3E3533",
"=  c #2E2A29",
"-  c #7F6159",
";  c #584742",
":  c #2B2827",
">  c #1F2020",
",  c #1A1C1D",
"<  c #2C2928",
"1  c #433835",
"2  c #5B4944",
"3  c #6F5650",
"4  c #7B5E57",
"5  c #80625A",
"6  c #2D2928",
"7  c #3F3633",
"8  c #564541",
"9  c #6A534D",
"0  c #765B54",
"q  c #785D56",
"w  c #775C55",
"e  c #554540",
"r  c #3E3532",
"t  c #6B544E",
"y  c #574642",
"u  c #413734",
"i  c #423835",
"p  c #6B534D",
"a  c #755B54",
"s  c #1D1F1F",
"d  c #3D3432",
"f  c #52433F",
"g  c #65504A",
"h  c #705751",
"j  c #735953",
"k  c #725852",
"l  c #51423E",
"z  c #3C3331",
"x  c #715751",
"c  c #725952",
"v  c #755A54",
"b  c #66504B",
"n  c #554541",
"m  c #423735",
"M  c #312C2B",
"N  c #272525",
"B  c #302B2A",
"V  c #53433F",
"C  c #624D48",
"Z  c #1E1F1F",
"A  c #3A3230",
"S  c #4C3E3B",
"D  c #5C4945",
"F  c #68514C",
"G  c #4B3E3B",
"H  c #38312F",
"J  c #67504B",
"K  c #67514C",
"L  c #69524D",
"P  c #6A534E",
"I  c #5F4B47",
"U  c #433836",
"Y  c #362F2F",
"T  c #2F2A2A",
"R  c #2C2828",
"E  c #352E2D",
"W  c #493C39",
"Q  c #5A4843",
"!  c #1E1F20",
"~  c #292726",
"^  c #352F2E",
"/  c #443937",
"(  c #52423F",
")  c #594744",
"_  c #5B4845",
"`  c #5A4744",
"'  c #443836",
"]  c #342E2D",
"[  c #5A4844",
"{  c #5D4946",
"}  c #564542",
"|  c #4E403D",
" . c #453938",
".. c #3E3433",
"X. c #393130",
"o. c #383030",
"O. c #3A3231",
"+. c #3C3332",
"@. c #403634",
"#. c #282625",
"$. c #3D3433",
"%. c #483B39",
"&. c #4E3F3D",
"*. c #50403E",
"=. c #4F403E",
"-. c #3D3332",
";. c #302B2B",
":. c #4C3E3C",
">. c #4A3C3B",
",. c #463A39",
"<. c #443837",
"1. c #423736",
"2. c #433736",
"3. c #3F3534",
"4. c #483B3A",
"5. c #493C3B",
"6. c #493B3A",
"7. c #2E2A2A",
"8. c #473A39",
"9. c #463938",
"0. c #443838",
"q. c #433837",
"w. c #3B3232",
"e. c #332D2C",
"r. c #252424",
"t. c #413635",
"y. c #3D3333",
"u. c #3E3434",
"i. c #453838",
"p. c #433737",
"a. c #4B3D3C",
"s. c #463939",
"d. c #37302F",
"f. c #312C2C",
"g. c #2E2929",
"h. c #473A3A",
"j. c #483A3A",
"k. c #372F2F",
"l. c #322C2C",
"z. c #3A3131",
"x. c #38302F",
"c. c #383130",
"v. c #2B2828",
"b. c #393131",
"n. c #3B3231",
"m. c #413736",
"M. c #202020",
"N. c #262424",
"B. c #2D2929",
"V. c #362F2E",
"C. c #352E2E",
"Z. c #262524",
"A. c #202121",
"S. c #2A2727",
"D. c #2F2B2A",
"F. c #282626",
"G. c #232222",
"H. c #342D2D",
"J. c #262525",
"K. c #212122",
"L. c #232223",
"P. c #292626",
"I. c gray13",
"U. c #232323",
"Y. c #242323",
"T. c #292727",
"R. c #202021",
"E. c #2C2929",
"W. c #252423",
"Q. c #232322",
"!. c #3C3431",
"~. c #342E2C",
"^. c #352F2D",
"/. c #2C2827",
"(. c #413735",
"). c #433936",
"_. c #50423E",
"`. c #5C4944",
"'. c #50413E",
"]. c #453A37",
"[. c #443936",
"{. c #272625",
"}. c #322D2C",
"|. c #594743",
" X c #594843",
".X c #332E2C",
"XX c #3C3432",
"oX c #50413D",
"OX c #614D47",
"+X c #604C47",
"@X c #4E403C",
"#X c #302C2B",
"$X c #745A53",
"%X c #654F4A",
"&X c #3B3331",
"*X c #544440",
"=X c #644F4A",
"-X c #614D48",
";X c #705750",
":X c #735952",
">X c #453937",
",X c #544340",
"<X c #614C48",
"1X c #6C544F",
"2X c #5E4B46",
"3X c #4D3F3C",
"4X c #4F403D",
"5X c #554441",
"6X c #68524C",
"7X c #6B534E",
"8X c #4C3F3C",
"9X c #68524D",
"0X c #574542",
"qX c #5E4A46",
"wX c #5E4A47",
"eX c #534340",
"rX c #2A2726",
"tX c #463A38",
"yX c #51413F",
"uX c #3E3534",
"iX c #584643",
"pX c #5C4946",
"aX c #5D4A46",
"sX c #4B3D3B",
"dX c #4D3E3D",
"fX c #50403F",
"gX c #322D2B",
"hX c #493B3B",
"jX c #252324",
"kX c #413636",
"lX c #4C3D3C",
"zX c #342F2D",
"xX c #3D3532",
"cX c #36302E",
"vX c #4F413D",
"bX c #755A53",
"nX c #483C39",
"mX c #6D544F",
"MX c #37302E",
"NX c #493C3A",
"BX c #282525",
"VX c #3F3533",
"CX c #66504A",
"ZX c #604C48",
"AX c #6A524D",
"SX c #524240",
"DX c #574643",
"FX c #4D3E3C",
"GX c #4F3F3E",
"HX c #403635",
"JX c #312B2B",
"KX c white",
/* pixels */
"  . X o O + @ # $ % @ @ @ @ % $ # @ + & * = = * & + @ # $ % @ @ @ @ % $ # @ + & * = = * & + @ - - @ + ; o : > , , > < 1 2 3 4 5 ",
"  . 6 7 8 9 0 @ q w 0 0 0 0 w q @ 0 9 e r X X r e 9 0 @ q w 0 0 0 0 w q @ 0 9 e r X X r e 9 0 $ $ 0 t y u 6 .     . X i ; p a 4 ",
"s . < d f g h j k h h h h h h k j h g l z 6 6 z l g h j k h h h h h x c j h g l z 6 6 z l g h v v h b n m M N . . N B u V C 9 3 ",
"Z . : A S D b F F b b b b b b F F b D G H : : H G D b F F b b b J J K F L b D G H : : H G D b P P J I f U Y T R R T E * W f y Q ",
"! . ~ ^ / ( ) _ _ ` ) ) ) ) ` _ _ ) ( ' ] ~ ~ ] ' ( ) _ _ ` ` ` [ _ _ D D ) ( U ] ~ ~ ] U ( ` { { _ } |  ...X.o.o.X.O.+.* @.u u ",
"> . #.M $.%.&.*.=.&.&.&.&.&.&.=.*.&.%.-.;.#.#.;.-.%.&.*.=.&.&.&.&.&.&.=.*.&.%.-.;.#.#.;.-.%.&.*.=.&.:.>.,.<.1.1.2.1.3.O.E ;.= < ",
"> . N T X.2.4.5.6.4.4.4.4.4.4.6.5.4.2.X.7.N N 7.X.2.4.5.5.4.8.9.0.q.<. .8.8.2.X.7.N N 7.X.2.8.8. .<.q.<.9.8.4.4.6.8.q.w.e.R N r.",
"> . N T X.1.8.4.4.8.8.8.8.8.8.4.4.8.1.o.= N N = o.1.8.6.4.8. .t.y.O.O.u.1. .1.X.7.N N 7.X.1.i.1...O.O.u.p.8.>.a.a.>.s.3.d.f.g.R ",
"> . N T X.1.h.6.6.4.4.4.4.4.4.6.6.h.1.X.= N N = X.1.j.>.>.4.<...k.l.l.o.3.<.1.z.T N N T z.1.<.3.x.l.l.d.3.,.>.a.a.>.8.q.3.w.X.o.",
"> . N T X.1.8.4.4.8.8.8.8.8.8.4.4.8.1.c.= N N = c.1.8.5.5.8.2.O.M v.v.l.+.1.1.b.T N N T b.1.1.+.l.v.v.f.n.p.8.6.6.4.8. .<.2.1.m.",
"M.. N.B.V...1.q.q.1.1.1.1.1.1.q.q.1...^ R N.N.R ^ ..1.<.<.1.$.C.R N.N.B.Y $.$.Y B.N.N.B.k.....k.B.Z.N.R C.$.1.q.p.1.1.1.1.1.1.1.",
"A.. r.S.;.Y X.z.X.o.d.d.d.d.o.X.z.X.V.D.F.G.G.F.D.V.b.O.z.o.H.B.J.K.. N 7.H.] T F.G.L.P.;.V.V.;.F.. K.J.B.H.d.o.o.d.x.o.o.X.X.X.",
"I.. U.J.S.B.T T = B.< R R < B.= T T B.P.Y.I.I.Y.P.B.T D.7.B.S.J.. M.M.G.N S.S.N U.I.I.r.T.B.B.P.Y.R.M.. J.S.< B.B.E.B.B.B.B.B.B.",
"I.. . U.W.N.N N N N N N N N N N N N N.r.U.G.G.U.r.N.N N N N J.r.Y.G.G.Y.r.J.J.r.Y.G.G.Y.r.N.N.r.U.. G.Y.r.J.N N N N N N N N N N ",
". . I.I.I.. Q.N.~ < X = = X R P.N.U.U.N.~ R : ~ N.U.U.N.~ < X = = X B.X X X X = = 6 R P.r.U.U.r.P.R 6 = = X X X X X X X X X X X ",
". I.I.M.> M.Y.: ] !.o 1 1 o !.~.: W.r.< V.d d ^./.Y.Y.: ] d (.U 1 i m (.u u u i 1 (.d ^.: W.W.: ^.d m 1 i u u o o u u u u u u u ",
". I.I.> Z M.N ~.)._.; `.2 ; '.i e.F.P.^.].l l [.~.#.{.}.1 l |.2 2  X|.|.; ; ; Q 2 |.l 1 .XF.F..X1 l |.2 Q ; ; ; ; ; ; ; ; ; ; ; ",
". . I.M.> . : XXoXOXp 3 3 p +X@XA R < z l +X+Xl z < R A @X+X9 + + t p p p p t + + 9 OX@XA R R A @XOX9 + + t p p p p p p p p p p ",
"I.. . K.. J.#Xm n b h $X$Xh %Xl &X< 6 d *X=Xg 8 (.M B d oX-Xt 3 ;X3 h h h h h k c 3 %Xl &X< < &Xl %X3 :Xk h h h h h h h h h h h ",
"I.. U.r.F.= d.>X,X<XF 1X1XF 2X3XX.v.R O.4X2X+X5X>Xx.^ d W *XD -X=XJ F L L 6XL P 7XF 2X3XX.v.v.X.8X2XF 7X7XL L L L 9XF F F F F F ",
"A.. W.~ D.Y ..8.=.0X_ qXwX_ eX/ E rXS.^ tXeX} yX8.uXn.&X* m tXS ( iX_ D D _ _ pX{ _ eX/ E rXrX] / eX_ qXaXpXD D _ _ _ _ _ _ _ _ ",
"M.. N.B.^ ..<.4.sXdX&.*.fX&.%.d ;.#.#.M $.%.:.:.6.<.3.X.] ;.gXX.m >.&.=.=.&.&.=.*.&.%.d ;.#.#.;.d %.&.*.=.&.&.&.&.&.&.&.&.&.&.&.",
"> . N T X.1.8.6.6.4.4.6.5.4.2.X.7.N N 7.X.2.4.>.>.4.1.X.7.N N T X.2.4.5.6.4.4.6.5.4.2.X.7.N N 7.X.2.8.8. .<.q.0.9.8.4.4.4.4.4.4.",
"> . N ;.n.<.5.>.hXh.8.4.4.8.1.o.= N N = o.1.8.>.a.5.<.X.B.jXY.R d.kX8.4.4.8.8.4.4.8.1.o.= N N 7.X.1. .1.u.O.O.y.t. .8.h.8.8.8.8.",
"> . N ;.O.<.5.>.5.4.4.6.6.h.1.X.= N N = X.1.4.a.lX5.<.b.B.r.r.B.o.1.h.hX6.4.4.6.6.h.1.X.= N N T z.1.<.3.o.l.l.k...<.h.4.4.4.4.4.",
"> . N T X.1.8.6.4.8.8.4.4.8.1.c.= N N = c.1.8.>.>.8.1.c.= J.J.g.o.1.8.4.4.8.8.4.4.8.1.c.= N N T b.1.1.+.l.v.v.M O.2.8.4.4.8.8.8.",
"M.. N.B.V...1.q.q.1.1.q.q.1.$.C.R N.N.R C.$.1.<.<.1.$.C.< N.N.< C.$.1.q.p.1.1.q.q.1...^ < N.N.B.Y $.$.Y B.N.N.< ^ ..1.<.q.2.1.1.",
"A.. Y.~ T ] x.X.b.b.b.b.X.x.] = N G.G.N = ] d.X.X.d.] T P.W.W.P.T ] d.o.o.d.o.X.z.X.V.D.F.G.G.F.T ] H.7.N . . N T V.b.n.O.z.z.z.",
"I.. G.r.F.v.B.= T T T T 7.B.S.N L.A.A.L.N S.< B.B.< v.F.r.G.G.r.F.v.< B.B.E.B.= T T B.P.Y.I.I.U.N S.S.N G.M.R.Y.F.B.D.;.;.D.D.D.",
"I.. . U.r.J.N N N N N N N N J.r.Y.G.G.Y.r.J.N N N N J.r.U.. . U.r.J.N N N N N N N N N.r.U.G.G.Y.r.J.J.r.Y.G.. U.r.N.N N N N N N ",
"I.. Q.Z.~ R R ~ N.U.U.N.~ < X = = X B.X X X X = = X R P.r.Q.Q.r.P.R X = = X R P.N.U.U.r.P.R 6 = = X X = = 6 R ~ Z.U.. I.I.. . . ",
"M.. N.X V.!.z zX: Y.Y.: ] d (.U 1 i m (.u u u u m o !.] < N.N.< ] !.u i i o !.~.: W.W.: ^.d (.1 i u u i 1 (.xXV.6 W.A.> > > > > ",
"! . ~ cX].oXoX[..X{.{.}.1 l |.2 2  X|.|.; ; ;  XQ ; _.1 ~.~ ~ ~.1 _.; 2 2 ; '.i e.F.F..XU l |.2 Q ; ; Q 2 |.l [.^.#.I.Z Z > > > ",
"s . R d l +X+Xl z < R A @X+X9 + + t p p p p t + + 9 +X@XA R R A @X+Xp 3 3 p +X@XA R R A @XOX9 + + t t + + 9 -XoXXX: . > M.I.. . ",
"s . < 7 *X=Xg 8 (.M B d vX-Xp 3 ;X3 h h h h h k c 3 %Xl &X< < &Xl %Xh bXbXh %Xl &X< < &Xl %X3 c k h h k c 3 g V * < G.I.G.N.N N ",
"Z . : +.4X2X+X5X>Xx.^ XXnX*X2 +X=Xb F L L 6XL P 7XF 2X3XX.v.v.X.3X2XF mXmXF 2XS H : : H S 2XF 7XP L L P 7XF I @X&X: Y.Y.P.B.D.;.",
"! . ~ MXtXeX} yX8.uXn.n.d o ].G ( iX_ D D _ _ pX{ _ eX/ E rXrXE / eX_ I I _ eX/ ] F.F.] / eX_ aXpX_ _ pX{ _ eX].V.~ r.P.B V.b.w.",
"> . #.l...%.:.:.6.<.3.b.] #X}.X.m >.&.=.=.&.&.=.*.&.%.d ;.#.#.;.d %.&.yXyX&.4.d ;.F.F.;.d 4.&.*.=.&.&.=.*.&.4.$.M #.J.6 V...1.<.",
"> . N T X.2.4.>.>.4.q.n.l.R R l.w.q.4.NX6.4.4.6.5.4.2.X.7.N N 7.X.2.4.>.>.4.q.w.l.v.v.l.w.q.4.NX6.4.4.6.5.4.2.X.7.N N T X.1.8.>.",
"> . N T c.1.8.>.a.5.9.3.d.f.M V.y.q.8.4.j.8.8.4.4.8.1.o.= N N = o.1.8.6.6.8.<.u.o.H.H.o.u.<.8.4.h.8.8.4.4.8.1.o.= N N B n.<.>.:.",
"> . N T X.1.4.>.a.>.8.q.3.w.w...1.9.j.4.4.4.4.6.6.h.1.X.= N N = X.1.h.5.hX4.s.2.3.y.y.3.2.s.j.4.4.4.4.6.6.h.1.X.= N N B n.<.>.:.",
"> . N T X.1.8.6.6.4.8. .<.2.2.<. .,.8.8.8.8.8.4.4.8.1.c.= N N = c.1.8.6.4.8.,. .<.p.p.<. .,.8.8.8.8.8.4.4.8.1.c.= N N T X.1.8.>.",
"M.. N.B.V.$.1.q.p.1.1.1.1.1.1.1.1.1.1.1.1.1.1.q.q.1.$.C.R N.N.R C.$.1.q.p.1.1.1.1.1.1.1.1.1.1.1.1.1.1.q.q.1...^ < N.N.6 V.$.1.<.",
"A.. Y.~ T ] d.o.o.d.o.X.z.O.O.z.X.o.o.o.X.b.b.b.X.x.] = N G.G.N = ] d.o.o.d.o.X.z.O.O.z.X.o.d.d.d.d.o.X.z.X.V.D.F.G.G.BX7.] d.X.",
"I.. G.r.F.v.< B.B.E.B.= T ;.;.T = B.B.B.7.T T T 7.B.S.N L.A.A.L.N S.< B.B.E.B.= T ;.;.T = B.< R R < B.= T T B.P.Y.I.I.U.N S.< B.",
"I.. . U.r.J.N N N N N N N N N N N N N N N N N N N N J.r.Y.G.G.Y.r.J.N N N N N N N N N N N N N N N N N N N N N.r.U.G.G.Y.r.J.N N ",
"I.. Q.N.~ R X = = X R P.N.U.U.N.~ R R ~ N.U.U.N.P.R X = = X B.X X X X = = X R P.N.U.U.N.P.R X = = X R P.r.U.Q.r.P.R 6 = = X X X ",
"M.. N.< ^.!.u i i o !.~.: W.W.< ^.!.!.^.< W.W.: ~.!.u i i i m (.u u u (.m o !.~.: W.W.: ~.!.o 1 1 o !..XS.Y.Y.: ] d (.1 i u u o ",
"! . ~ ^.)._.; 2 2 ; '.i e.F.P.] [.oXoX[.] P.F.e.i '.; [ Q  X|.|.; ; ;  XQ ; '.i e.F.F.e.i '.; 2 `.; oXi gXN N }.i l |.2 Q ; ; ; ",
"s . : &X4X+Xp 3 3 p +X@XA R < z _.+X+X_.z < R A @X+X9 + + t p p p p t + + 9 +X@XA R R A @X+Xp 3 3 p +X@XA < < A @XOX9 + + t p p ",
"s . < d ( %Xh bXbXh %Xl &X< 6 xX*X=X=X*Xd 6 < &Xl %X3 c k h h h h h h k :X3 %Xl &X< < &Xl %Xh $X$Xh b V VXM M VXV CX3 k k h h h ",
"Z . : n.3X2XF mXmXF 2X3XX.v.R &X4X2XqX4XA : : H S 2XF 7XP L 9XL L L L 7X7XF 2X8XX.v.v.X.8X2XF mX+ L -XV U x.d.1.( ZXF P AXL F F ",
"! . ~ V.>XeX_ wXwX_ eX/ E rXS.V.tXeXSXtX^ P.F.] / eX_ { pX_ _ _ D D pXaXqX_ eX/ ] rXrX] / eX_ wXI pXDX4X .uXuX>X&.} _ D D _ _ _ ",
"> . #.M $.4.&.yXyX&.%.d ;.#.F.M * %.%.* l.F.F.;.d 4.&.*.=.&.&.&.&.&.&.=.*.&.%.d ;.#.#.;.d %.&.*.*.&.:.NX,.<.<.,.>.FX&.GXGX&.&.&.",
"> . N T X.2.4.>.>.4.2.X.7.N N T O.1.q.+.e.R v.l.w.q.4.5.6.4.8.9.0.q.<. .8.8.2.X.7.N N 7.X.2.8.8. .<.q.<.9.8.4.4.4.4.4.4.4.4.4.4.",
"> . N T X.1.8.5.5.8.1.o.= N N 7.X.1.<.3.X.H.H.o.u.<.8.4.4.8. .t.y.O.O.u.1. .1.X.7.N N 7.X.1.i.1...O.O.u.q.8.5.5.4.8.8.8.8.8.8.8.",
"> . N T X.1.j.>.>.j.1.X.= N N 7.X.1.9.<.HX$.y.3.2.s.4.6.6.j.<...k.l.l.o.3.<.1.z.T N N T z.1.<.3.x.l.l.d.3.s.5.>.5.4.4.j.j.4.4.4.",
"> . N T X.1.8.5.5.8.1.c.= N N = X.1.,.,. .q.p.<. .,.8.4.4.8.2.O.M v.v.l.+.1.1.b.T N N T b.1.1.+.l.v.v.f.n.p.8.4.4.8.8.8.8.8.8.8.",
"M.. N.B.V...1.<.<.1...^ < Z.Z.< ^ ..1.q.q.1.1.1.1.1.1.q.q.1...^ < J.J.B.k.....k.B.Z.Z.B.k.....k.B.J.J.< ^ ..1.q.q.1.1.1.1.1.1.1.",
"A.. r.S.;.V.X.O.O.X.V.;.~ r.r.~ B V.X.O.O.O.O.O.b.X.X.z.z.X.V.D.F.Y.Y.P.;.^ V.JXS.r.r.S.JXV.^ ;.P.Y.Y.F.D.V.X.O.z.X.X.X.X.X.X.X.",
"I.. U.J.S.B.T ;.;.T B.S.N.U.U.N.S.B.T ;.;.;.;.B D.T T D.D.T B.~ r.G.G.N.S.B.B.S.J.U.U.J.S.B.B.S.N.G.G.r.~ B.T D.D.T T T T T T T ",
"I.. . U.r.N.N N N N N.W.U.. . U.W.N.N N N N N N N N N N N N N.W.U.. . U.r.N.N.r.U.. . U.r.N.N.r.U.. . U.W.N.N N N N N N N N N N ",
"I.. . . . . . . . . . . . . . . . . . . . . . . . . . . . . . . . . . . . . . . . . . . . . . . . . . . . . . . . . . . . . . . ",
". I.I.I.A.M.> > > > M.A.I.I.I.I.A.M.> > > > > > > > > > > > M.A.I.I.I.I.A.M.M.A.I.I.I.I.A.M.M.A.I.I.I.I.A.M.> > > > > > > > > > "
};
